<?xml version="1.0" encoding="UTF-8"?>
<!DOCTYPE svg PUBLIC "-//W3C//DTD SVG 1.1//EN" "http://www.w3.org/Graphics/SVG/1.1/DTD/svg11.dtd">
<svg xmlns="http://www.w3.org/2000/svg" xmlns:xlink="http://www.w3.org/1999/xlink" version="1.1" width="63px" height="84px" viewBox="-0.5 -0.5 63 84"><defs><style type="text/css">@import url(https://fonts.googleapis.com/css?family=Volkorn);&#xa;</style></defs><g><path d="M 0 15 C 0 6.72 13.43 0 30 0 C 37.96 0 45.59 1.58 51.21 4.39 C 56.84 7.21 60 11.02 60 15 L 60 65 C 60 73.28 46.57 80 30 80 C 13.43 80 0 73.28 0 65 Z" fill="none" stroke="none" pointer-events="all" transform="translate(2,3)" opacity="0.25"/><path d="M 0 15 C 0 6.72 13.43 0 30 0 C 37.96 0 45.59 1.58 51.21 4.39 C 56.84 7.21 60 11.02 60 15 L 60 65 C 60 73.28 46.57 80 30 80 C 13.43 80 0 73.28 0 65 Z" fill="none" stroke="none" pointer-events="all"/><path d="M 60 15 C 60 23.28 46.57 30 30 30 C 13.43 30 0 23.28 0 15" fill="none" stroke="none" pointer-events="all"/><path d="M 4.88 6.89 C 4.88 6.89 4.88 6.89 4.88 6.89 M 4.88 6.89 C 4.88 6.89 4.88 6.89 4.88 6.89 M 4.38 7.78 C 4.37 7.64 5.39 6.97 5.69 6.27 M 4.38 7.78 C 4.74 7.19 5.14 7.03 5.69 6.27 M 3.87 8.67 C 3.89 7.75 4.84 7.15 5.84 6.4 M 3.87 8.67 C 4.55 8.12 4.7 7.32 5.84 6.4 M 3.37 9.55 C 4.24 9.08 4.78 7.42 5.99 6.53 M 3.37 9.55 C 3.91 8.85 4.87 8.21 5.99 6.53 M 2.86 10.44 C 5.35 9.35 5.49 6.9 6.8 5.91 M 2.86 10.44 C 4.33 9.31 5.73 8.02 6.8 5.91 M 1.7 12.08 C 4.46 9.74 5.08 8.26 6.95 6.04 M 1.7 12.08 C 4.26 9.63 6.43 6.77 6.95 6.04 M 1.19 12.96 C 2.82 12.55 4.16 7.58 7.1 6.17 M 1.19 12.96 C 3.84 10.64 5.45 9.1 7.1 6.17 M 0.69 13.85 C 2.79 13.02 2.66 8.48 7.91 5.55 M 0.69 13.85 C 4.6 10.51 6.9 8.26 7.91 5.55 M 0.18 14.74 C 5.19 9.76 5.87 10.03 8.06 5.68 M 0.18 14.74 C 2 13.1 5.02 9.41 8.06 5.68 M 0.34 14.87 C 1.29 9.47 8.37 6.93 8.21 5.81 M 0.34 14.87 C 3.3 12.7 5.92 9.22 8.21 5.81 M -0.17 15.75 C 0.8 13.96 2.74 11.17 9.02 5.19 M -0.17 15.75 C 1.03 11.82 3.63 9.09 9.02 5.19 M -0.02 15.88 C 2.15 11.18 5.42 13.42 9.17 5.32 M -0.02 15.88 C 2.97 11.91 7.3 8.09 9.17 5.32 M 0.13 16.01 C 4.85 10.28 7.6 7.36 9.32 5.45 M 0.13 16.01 C 2.31 13.19 4.68 9.78 9.32 5.45 M 0.28 16.15 C 1.12 12.74 8.32 11.94 10.12 4.83 M 0.28 16.15 C 1.84 12.59 5.03 8.44 10.12 4.83 M 0.43 16.28 C 3.19 13.14 11.07 9.96 10.27 4.96 M 0.43 16.28 C 2.44 13.57 4.96 9.76 10.27 4.96 M -0.07 17.16 C 4.18 13.08 8.18 11.44 10.43 5.09 M -0.07 17.16 C 2.88 13.41 8.72 7.11 10.43 5.09 M 0.08 17.29 C 4.04 16.64 9.19 7.47 11.23 4.46 M 0.08 17.29 C 3.89 14.83 5.04 9.41 11.23 4.46 M 0.23 17.43 C 1.72 16.15 7.61 10.48 11.38 4.6 M 0.23 17.43 C 3.29 15.79 5.46 12.73 11.38 4.6 M 0.38 17.56 C 7.51 16.48 5.06 11.47 11.53 4.73 M 0.38 17.56 C 2.72 15.1 7.16 10.46 11.53 4.73 M -0.12 18.44 C 5.28 13.1 10.19 9.49 12.34 4.1 M -0.12 18.44 C 4.86 15.94 8.05 9.1 12.34 4.1 M 0.03 18.57 C -0.1 11.38 2.46 12.38 12.49 4.23 M 0.03 18.57 C 5.04 16.15 6.23 11.57 12.49 4.23 M 0.18 18.71 C 6.93 17.91 7.44 8.69 13.3 3.61 M 0.18 18.71 C 4.84 13.47 6.3 11.01 13.3 3.61 M 0.33 18.84 C 4.47 13.61 10.52 8.75 13.45 3.74 M 0.33 18.84 C 5.31 12.03 11.24 10.21 13.45 3.74 M -0.18 19.72 C 4.14 13.32 3.78 8.49 13.6 3.87 M -0.18 19.72 C 4.25 16.26 8.61 10.49 13.6 3.87 M -0.02 19.85 C 2.11 16.53 5.46 6.2 14.41 3.25 M -0.02 19.85 C 5.53 16.48 9.33 11.48 14.41 3.25 M 0.13 19.98 C 5.42 20.42 6.67 16.44 14.56 3.38 M 0.13 19.98 C 3.22 12.61 7.38 11.31 14.56 3.38 M 0.28 20.12 C 9.06 12.69 8.35 9.36 14.71 3.51 M 0.28 20.12 C 4.4 15.85 7.6 12.29 14.71 3.51 M 0.43 20.25 C 4.42 12.76 9.13 15.38 15.52 2.89 M 0.43 20.25 C 4.88 17.17 6.84 14.53 15.52 2.89 M -0.08 21.13 C 8.81 12.58 7.8 8.9 15.67 3.02 M -0.08 21.13 C 5.44 17.11 9.75 10.91 15.67 3.02 M 0.07 21.26 C 0.68 14.44 10.26 15.07 15.82 3.15 M 0.07 21.26 C 3.35 17.72 7.74 12.22 15.82 3.15 M 0.22 21.4 C 7.69 14.13 12.81 9.15 16.63 2.53 M 0.22 21.4 C 3.25 16.45 5.91 11.86 16.63 2.53 M 0.38 21.53 C 5.96 19.54 11.2 13.18 16.78 2.66 M 0.38 21.53 C 7.21 13.84 13.75 8.69 16.78 2.66 M -0.13 22.41 C 6.78 13.86 12.08 11.33 16.93 2.79 M -0.13 22.41 C 6.19 17.89 7.81 10.78 16.93 2.79 M 0.02 22.54 C 9.78 16.79 13.3 11.17 17.74 2.17 M 0.02 22.54 C 5.73 13.4 15.46 6.18 17.74 2.17 M 0.17 22.68 C 9.98 17.82 15.44 9.31 17.89 2.3 M 0.17 22.68 C 6.31 18.14 12.32 11.22 17.89 2.3 M 0.32 22.81 C 3.11 17.83 14.47 7.65 18.04 2.43 M 0.32 22.81 C 3.62 16.91 8.03 14.67 18.04 2.43 M -0.18 23.69 C 8.1 19.41 14.92 11.96 18.84 1.81 M -0.18 23.69 C 3.59 16.27 8.77 10.83 18.84 1.81 M -0.03 23.82 C 2.67 20.91 12.87 11.81 19 1.94 M -0.03 23.82 C 3.41 20 7.59 14.7 19 1.94 M 0.12 23.95 C 2.65 14.77 13.36 15.35 19.15 2.07 M 0.12 23.95 C 3.4 16.83 10.89 12.9 19.15 2.07 M 0.27 24.09 C 4.28 18.2 7.51 13.89 19.95 1.44 M 0.27 24.09 C 8.89 15.09 13.8 10.44 19.95 1.44 M 0.42 24.22 C 5.43 20.44 9.63 9.35 20.1 1.58 M 0.42 24.22 C 8.32 14.61 15.56 9.08 20.1 1.58 M -0.08 25.1 C 9.12 20.52 10.05 15.03 20.25 1.71 M -0.08 25.1 C 7.78 18.17 13.14 11.29 20.25 1.71 M 0.07 25.23 C 7.45 16.89 9.93 8.82 21.06 1.08 M 0.07 25.23 C 2.59 21.57 9.3 13.73 21.06 1.08 M 0.22 25.37 C 8.2 21.65 8.4 13.1 21.21 1.21 M 0.22 25.37 C 7.46 16.73 17.83 6.81 21.21 1.21 M 0.37 25.5 C 7.21 19.45 15.93 2.28 21.36 1.35 M 0.37 25.5 C 6.37 16.28 14.45 9.16 21.36 1.35 M -0.14 26.38 C 4.88 18.4 17.88 9.57 22.17 0.72 M -0.14 26.38 C 8.23 16.23 15.57 11.09 22.17 0.72 M 0.02 26.51 C 2.95 22.33 14.6 13.2 22.32 0.85 M 0.02 26.51 C 4.97 19.56 7.59 14.08 22.32 0.85 M 0.17 26.65 C 8.26 21.6 12.26 12.82 22.47 0.98 M 0.17 26.65 C 3.52 20.59 8.8 14.55 22.47 0.98 M 0.32 26.78 C 6.12 18.12 13.85 5.86 23.28 0.36 M 0.32 26.78 C 7.32 15.19 17.58 6.01 23.28 0.36 M -0.19 27.66 C 6.77 16.51 22.23 5.45 23.43 0.49 M -0.19 27.66 C 5.75 20.03 15.63 12.19 23.43 0.49 M -0.04 27.79 C 11.18 20.73 17.63 9.95 23.58 0.62 M -0.04 27.79 C 6.14 20.2 16.09 12.19 23.58 0.62 M 0.11 27.92 C 10.52 22.16 15.26 11.34 23.73 0.76 M 0.11 27.92 C 8.28 19.33 14.48 12.43 23.73 0.76 M 0.27 28.06 C 7.24 19.27 12.7 10.13 24.54 0.13 M 0.27 28.06 C 8.29 18.34 14.87 10.24 24.54 0.13 M 0.42 28.19 C 7.09 13.61 18.11 6.44 24.69 0.26 M 0.42 28.19 C 5.17 19.77 13.33 13.69 24.69 0.26 M -0.09 29.07 C 3.3 26.93 10.31 18.46 24.84 0.39 M -0.09 29.07 C 3.84 22.05 12.54 15.78 24.84 0.39 M 0.06 29.2 C 9.92 22.12 11.19 16.91 24.99 0.53 M 0.06 29.2 C 8.57 20.61 16.22 10.39 24.99 0.53 M 0.21 29.34 C 1.98 18.72 8.89 14.42 25.14 0.66 M 0.21 29.34 C 9.91 20.11 20.59 5.73 25.14 0.66 M 0.36 29.47 C 8.62 19.71 16.06 14.83 25.29 0.79 M 0.36 29.47 C 5.95 21.35 15.24 13.87 25.29 0.79 M -0.14 30.35 C 6.83 19.16 16.44 10.88 26.1 0.16 M -0.14 30.35 C 10.16 21.14 18.94 9.42 26.1 0.16 M 0.01 30.48 C 5.83 22.92 12.44 17.26 26.25 0.3 M 0.01 30.48 C 7.43 23.5 14.21 14.73 26.25 0.3 M 0.16 30.61 C 11 20.91 15.53 13.54 26.4 0.43 M 0.16 30.61 C 6.92 24.02 11.52 15.41 26.4 0.43 M 0.31 30.75 C 11.56 18.22 22.35 7.16 26.55 0.56 M 0.31 30.75 C 5.21 21.85 11.5 17.21 26.55 0.56 M -0.19 31.63 C 8.96 16.81 19.61 12.06 26.7 0.69 M -0.19 31.63 C 5 22.24 11.76 15.04 26.7 0.69 M -0.04 31.76 C 3.06 28.79 12.05 20.99 26.86 0.82 M -0.04 31.76 C 7.96 24.98 13.66 15.36 26.86 0.82 M 0.11 31.89 C 10.51 19.32 19.02 7.72 27.66 0.2 M 0.11 31.89 C 11.45 21.81 21.37 11.36 27.66 0.2 M 0.26 32.03 C 8.46 20.66 13.11 12.73 27.81 0.33 M 0.26 32.03 C 12.89 18.21 21.82 5.95 27.81 0.33 M 0.41 32.16 C 10.29 18.97 17.51 7.25 27.96 0.46 M 0.41 32.16 C 5.78 23.16 12.64 16.92 27.96 0.46 M -0.09 33.04 C 10.47 18.52 19.62 4.95 28.12 0.59 M -0.09 33.04 C 7 24.9 14.47 17.78 28.12 0.59 M 0.06 33.17 C 3.61 30.14 8.92 19.6 28.27 0.72 M 0.06 33.17 C 7.65 21.86 16.4 13.91 28.27 0.72 M 0.21 33.31 C 3.57 20.58 17.23 15.22 28.42 0.85 M 0.21 33.31 C 10 20.95 19.41 12.18 28.42 0.85 M 0.36 33.44 C 10.48 19.34 19.05 12.85 28.57 0.98 M 0.36 33.44 C 5.6 26.91 14.92 18.37 28.57 0.98 M -0.15 34.32 C 11.63 25.75 14.24 17.23 29.38 0.36 M -0.15 34.32 C 8.49 23.27 20.5 13.46 29.38 0.36 M 0 34.45 C 5.16 30.26 13.48 18.74 29.53 0.49 M 0 34.45 C 8.82 23.42 16.58 14.59 29.53 0.49 M 0.15 34.58 C 10.74 26.46 24.69 6.99 29.68 0.62 M 0.15 34.58 C 9.92 21.49 22.87 8.65 29.68 0.62 M 0.31 34.72 C 9.27 22.75 13.09 13.04 29.83 0.75 M 0.31 34.72 C 13.14 20.86 21.52 7.52 29.83 0.75 M -0.2 35.6 C 12.09 21.87 20.69 8.32 29.98 0.89 M -0.2 35.6 C 11.11 21.28 23.39 7.03 29.98 0.89 M -0.05 35.73 C 10.12 26.48 25.4 6.61 30.13 1.02 M -0.05 35.73 C 8.3 27.45 14.52 19.17 30.13 1.02 M 0.1 35.86 C 10.42 24.73 26.88 12.41 30.94 0.39 M 0.1 35.86 C 9.72 22.61 21.48 10.48 30.94 0.39 M 0.25 36 C 4.12 28.82 16.85 19.19 31.09 0.52 M 0.25 36 C 11.05 23.52 18.11 13.8 31.09 0.52 M 0.4 36.13 C 9.08 19.67 24.28 11.66 31.24 0.66 M 0.4 36.13 C 9.55 25.48 17.32 14.22 31.24 0.66 M -0.1 37.01 C 8.75 23.17 20.34 11.27 31.39 0.79 M -0.1 37.01 C 8.52 29.96 15.08 21.42 31.39 0.79 M 0.05 37.14 C 10.91 26.59 26.01 8.53 31.54 0.92 M 0.05 37.14 C 11.31 24.45 25.59 9.27 31.54 0.92 M 0.2 37.28 C 15.85 21.4 25.14 8.34 31.69 1.05 M 0.2 37.28 C 9.85 24.95 20.06 17.06 31.69 1.05 M 0.35 37.41 C 6.82 27.87 18.28 15.37 32.5 0.43 M 0.35 37.41 C 9.21 26.59 17.78 18.68 32.5 0.43 M -0.15 38.29 C 10.67 29.46 15.73 18.13 32.65 0.56 M -0.15 38.29 C 10.01 29.39 17.3 16.85 32.65 0.56 M 0 38.42 C 8.3 27.29 16.19 24.98 32.8 0.69 M 0 38.42 C 6.1 30.81 15.68 24.73 32.8 0.69 M 0.15 38.55 C 7.88 21.33 22.66 13.76 32.95 0.82 M 0.15 38.55 C 9.32 30.81 15.21 19.43 32.95 0.82 M 0.3 38.69 C 11.18 28.33 27.42 12.95 33.1 0.95 M 0.3 38.69 C 8.51 28.34 17.29 18.29 33.1 0.95 M 0.45 38.82 C 15.55 27.63 26.03 8.51 33.25 1.08 M 0.45 38.82 C 6.22 30.74 13.01 24.9 33.25 1.08 M -0.05 39.7 C 11.08 30.04 17.85 19.29 33.4 1.21 M -0.05 39.7 C 10.61 24.5 24.86 12.56 33.4 1.21 M 0.1 39.83 C 7.24 29.53 14.69 25.82 34.21 0.59 M 0.1 39.83 C 11 24.34 23.86 12.34 34.21 0.59 M 0.25 39.97 C 5.38 27.9 14.42 17.67 34.36 0.72 M 0.25 39.97 C 14.37 26.54 26.54 12.5 34.36 0.72 M 0.4 40.1 C 15.22 26.02 28.14 16.03 34.51 0.85 M 0.4 40.1 C 7.78 29.17 19.6 20.92 34.51 0.85 M -0.11 40.98 C 8.85 31.26 16.79 17.55 34.66 0.98 M -0.11 40.98 C 11.42 28.8 18.84 19.42 34.66 0.98 M 0.04 41.11 C 15.21 28.69 21.93 14.17 34.82 1.11 M 0.04 41.11 C 12.41 23.85 27.49 11.31 34.82 1.11 M 0.2 41.25 C 14.34 25.16 26.98 11.19 34.97 1.25 M 0.2 41.25 C 10.26 30.93 16.67 21.2 34.97 1.25 M 0.35 41.38 C 7.44 29.71 16.6 16.33 35.77 0.62 M 0.35 41.38 C 11.32 28.55 27.48 11.28 35.77 0.62 M -0.16 42.26 C 9.04 30.02 21.69 16.23 35.92 0.75 M -0.16 42.26 C 11.07 29.23 19.33 18.52 35.92 0.75 M -0.01 42.39 C 12.69 33.43 19.58 25.26 36.08 0.88 M -0.01 42.39 C 8.98 31.82 18.57 22.22 36.08 0.88 M 0.14 42.52 C 9.08 28.71 19.33 21.51 36.23 1.02 M 0.14 42.52 C 13.98 29.45 23.57 12.07 36.23 1.02 M 0.29 42.66 C 14.22 31.15 28.89 9.35 36.38 1.15 M 0.29 42.66 C 13.55 25.74 29.12 9.7 36.38 1.15 M 0.44 42.79 C 11.69 33.93 14.53 26.63 36.53 1.28 M 0.44 42.79 C 10.54 30.53 22.13 19.95 36.53 1.28 M -0.06 43.67 C 14.45 26.43 29.89 8.03 37.33 0.65 M -0.06 43.67 C 10.95 35.02 20.3 21.46 37.33 0.65 M 0.09 43.8 C 9.63 28.59 22.82 16.51 37.49 0.79 M 0.09 43.8 C 14.45 29.31 27.25 14.53 37.49 0.79 M 0.24 43.94 C 12.88 29.05 22.71 23.23 37.64 0.92 M 0.24 43.94 C 8.7 36.09 16.93 26.17 37.64 0.92 M 0.39 44.07 C 13.53 32.97 22.41 14.25 37.79 1.05 M 0.39 44.07 C 11.1 35.52 18.44 24.85 37.79 1.05 M -0.11 44.95 C 4.22 33.25 17.56 26.02 37.94 1.18 M -0.11 44.95 C 15.29 27.49 30.32 10.27 37.94 1.18 M 0.04 45.08 C 8.15 32.94 23 21.22 38.09 1.31 M 0.04 45.08 C 6.53 36.94 14.3 27.9 38.09 1.31 M 0.19 45.21 C 14.68 29.67 20.34 19.66 38.24 1.44 M 0.19 45.21 C 12.99 28.48 28.49 8.95 38.24 1.44 M 0.34 45.35 C 5.79 36.23 22.39 20.56 39.05 0.82 M 0.34 45.35 C 9.59 35.32 15.41 25.65 39.05 0.82 M -0.16 46.23 C 12.98 32.39 26.16 18.12 39.2 0.95 M -0.16 46.23 C 6.45 37.29 16.7 27.53 39.2 0.95 M -0.01 46.36 C 8.68 29.87 25.65 20.6 39.35 1.08 M -0.01 46.36 C 15.18 28.92 27.22 12.52 39.35 1.08 M 0.14 46.49 C 14.26 31.88 31.69 14.4 39.5 1.21 M 0.14 46.49 C 10.54 34.52 23.45 17.79 39.5 1.21 M 0.29 46.63 C 12.67 41.82 16.81 32.07 39.65 1.34 M 0.29 46.63 C 11.03 36.44 19.02 23.74 39.65 1.34 M 0.44 46.76 C 15.02 33.24 29.53 11.51 39.8 1.47 M 0.44 46.76 C 13.22 36.76 23.37 23.49 39.8 1.47 M -0.07 47.64 C 14.24 29.53 21.85 21.44 40.61 0.85 M -0.07 47.64 C 9.83 38.01 19.99 28.11 40.61 0.85 M 0.08 47.77 C 15.62 36.07 29.21 16.59 40.76 0.98 M 0.08 47.77 C 9.47 39.51 16.39 25.92 40.76 0.98 M 0.24 47.91 C 14 30.59 31.11 15.27 40.91 1.11 M 0.24 47.91 C 15.24 32.31 28.51 17.13 40.91 1.11 M 0.39 48.04 C 8.63 34.78 20.23 19.82 41.06 1.24 M 0.39 48.04 C 9.88 38.81 16.09 29.45 41.06 1.24 M -0.12 48.92 C 12.01 38.79 20.4 25.41 41.21 1.38 M -0.12 48.92 C 14.9 33.24 26.72 14.69 41.21 1.38 M 0.03 49.05 C 19.33 31.74 31.7 12.07 41.36 1.51 M 0.03 49.05 C 15.54 28.83 30.79 11.46 41.36 1.51 M 0.18 49.18 C 11.18 35.42 25.22 23.21 41.52 1.64 M 0.18 49.18 C 16.38 34.01 30.71 16.75 41.52 1.64 M 0.33 49.32 C 16.57 36.86 24.05 22.33 42.32 1.01 M 0.33 49.32 C 11.35 35.89 21.98 24.38 42.32 1.01 M -0.17 50.2 C 10.72 37.44 14.6 26.51 42.47 1.15 M -0.17 50.2 C 9.63 36.69 18.58 25.43 42.47 1.15 M -0.02 50.33 C 12.57 34.91 22.87 22.08 42.62 1.28 M -0.02 50.33 C 10.3 39.1 19.36 27.61 42.62 1.28 M 0.13 50.46 C 17.09 31.35 29.7 18.64 42.77 1.41 M 0.13 50.46 C 12.83 37.97 23 24.71 42.77 1.41 M 0.28 50.6 C 14.42 30.18 30.01 12.72 42.93 1.54 M 0.28 50.6 C 18.9 28.71 32.88 10.63 42.93 1.54 M 0.43 50.73 C 17.34 33.07 29.28 14.27 43.08 1.67 M 0.43 50.73 C 16.84 31.37 28.64 14.28 43.08 1.67 M -0.07 51.61 C 13.24 36.38 19.43 20.51 43.23 1.8 M -0.07 51.61 C 12.79 40.48 23.07 27.26 43.23 1.8 M 0.08 51.74 C 9.51 44.32 16.28 35.78 43.38 1.93 M 0.08 51.74 C 9.79 38.36 19.53 28.86 43.38 1.93 M 0.23 51.88 C 7.53 44.53 18.49 31.16 43.53 2.06 M 0.23 51.88 C 13.71 36.81 29.79 21.66 43.53 2.06 M 0.38 52.01 C 13.36 35.83 25.61 21.08 43.68 2.2 M 0.38 52.01 C 11.2 35.55 27.17 22.34 43.68 2.2 M -0.12 52.89 C 11.3 35.02 19.6 23.18 43.83 2.33 M -0.12 52.89 C 16.2 34.6 30.82 20.92 43.83 2.33 M 0.03 53.02 C 6.83 43.64 17.42 27.81 43.98 2.46 M 0.03 53.02 C 13.16 37.64 25.51 24.4 43.98 2.46 M 0.18 53.15 C 13.69 39.88 26.12 24.09 44.13 2.59 M 0.18 53.15 C 12.65 38.49 28.74 22.94 44.13 2.59 M 0.33 53.29 C 13.03 45.46 23.91 31.78 44.28 2.72 M 0.33 53.29 C 10.37 41.57 21.93 30.89 44.28 2.72 M -0.18 54.17 C 15.63 38.77 26.97 27.02 44.44 2.85 M -0.18 54.17 C 15.45 32.92 34.45 16.16 44.44 2.85 M -0.03 54.3 C 12.97 36.81 28.13 19.33 44.59 2.98 M -0.03 54.3 C 16.85 39.32 31.65 22.51 44.59 2.98 M 0.13 54.43 C 10.8 38.37 25.24 21.27 44.74 3.11 M 0.13 54.43 C 16.68 36.76 35.38 16.62 44.74 3.11 M 0.28 54.57 C 9.19 39.67 25.82 22.02 44.89 3.25 M 0.28 54.57 C 10.13 42.87 21.14 28.23 44.89 3.25 M 0.43 54.7 C 22.4 34.39 34.5 13.31 45.04 3.38 M 0.43 54.7 C 14.79 37.04 29.32 19.59 45.04 3.38 M -0.08 55.58 C 13.43 34.64 34.15 14.18 45.19 3.51 M -0.08 55.58 C 12.84 44.66 24.27 30.9 45.19 3.51 M 0.07 55.71 C 19.01 38.17 34.24 21.77 46 2.88 M 0.07 55.71 C 14.18 39.71 27.7 22.72 46 2.88 M 0.22 55.85 C 14.07 36.35 29.25 17.06 46.15 3.02 M 0.22 55.85 C 11.97 44.04 19.85 30.32 46.15 3.02 M 0.37 55.98 C 15.48 34.75 32.1 14.47 46.3 3.15 M 0.37 55.98 C 16.72 38.33 32.75 18.67 46.3 3.15 M -0.13 56.86 C 19.46 34.82 34.17 22.15 46.45 3.28 M -0.13 56.86 C 11.57 42.22 24.08 26.28 46.45 3.28 M 0.02 56.99 C 15.7 33.16 37.53 12.68 46.6 3.41 M 0.02 56.99 C 8.79 45.13 17.78 33.87 46.6 3.41 M 0.17 57.12 C 13.59 43.84 22.95 31.26 46.75 3.54 M 0.17 57.12 C 15.11 38.64 30.18 20.45 46.75 3.54 M 0.32 57.26 C 12.59 47.46 20.96 30.79 46.9 3.67 M 0.32 57.26 C 17.79 39.77 31.55 22.94 46.9 3.67 M -0.18 58.14 C 9.26 45.3 26.25 32.07 47.05 3.8 M -0.18 58.14 C 16.39 35.14 37.24 17.14 47.05 3.8 M -0.03 58.27 C 10.24 46.64 20.92 34.06 47.2 3.93 M -0.03 58.27 C 16.92 41.51 30.63 24.04 47.2 3.93 M 0.12 58.4 C 19.65 41.06 35.2 16.74 47.36 4.07 M 0.12 58.4 C 19.17 37.48 36.42 18.43 47.36 4.07 M 0.27 58.54 C 14.51 49.73 22.21 33.38 47.51 4.2 M 0.27 58.54 C 15.65 39.67 29.31 24.46 47.51 4.2 M 0.42 58.67 C 19.86 37.47 33.04 19.07 47.66 4.33 M 0.42 58.67 C 14.15 41.05 29.58 28.04 47.66 4.33 M -0.08 59.55 C 9.59 41.21 20.75 33.2 47.81 4.46 M -0.08 59.55 C 16.74 41.92 30.38 27.02 47.81 4.46 M 0.07 59.68 C 15.37 40.99 30.33 24.22 47.96 4.59 M 0.07 59.68 C 8.49 47.44 21.97 36.77 47.96 4.59 M 0.22 59.81 C 19.01 39.8 39.13 14.18 48.11 4.72 M 0.22 59.81 C 16.71 44.55 27.88 26.37 48.11 4.72 M 0.37 59.95 C 17.89 37.07 35.87 20.91 48.26 4.85 M 0.37 59.95 C 16.63 39.18 34.3 22.73 48.26 4.85 M -0.14 60.83 C 14.68 43.56 27.05 32.19 48.41 4.98 M -0.14 60.83 C 16.55 41.3 28.95 24.93 48.41 4.98 M 0.01 60.96 C 17.36 47.09 28.58 27.81 48.56 5.11 M 0.01 60.96 C 18.66 44.27 31.95 26.43 48.56 5.11 M 0.17 61.09 C 14.82 37.97 31.56 25.61 48.71 5.25 M 0.17 61.09 C 10.52 47.5 21.79 37.16 48.71 5.25 M 0.32 61.23 C 17.32 42.99 28.02 32.75 49.52 4.62 M 0.32 61.23 C 14.09 44.48 29.31 29.71 49.52 4.62 M -0.19 62.11 C 13.67 43.24 27.52 29.19 49.67 4.75 M -0.19 62.11 C 13.91 47.54 27.86 30.29 49.67 4.75 M -0.04 62.24 C 15.17 39.81 40.66 18.13 49.82 4.88 M -0.04 62.24 C 16.92 42 34.69 23.15 49.82 4.88 M 0.11 62.37 C 11.43 44.24 27.06 32.16 49.97 5.02 M 0.11 62.37 C 18.85 43.04 35.12 22.87 49.97 5.02 M 0.26 62.51 C 9.53 47.95 22.37 33.03 50.12 5.15 M 0.26 62.51 C 17.42 43.57 33.71 22.16 50.12 5.15 M 0.42 62.64 C 20.71 38.59 37.52 21.23 50.28 5.28 M 0.42 62.64 C 11.23 49.79 24.04 37.3 50.28 5.28 M -0.09 63.52 C 14.11 47.73 35 22.61 50.43 5.41 M -0.09 63.52 C 17.12 42.28 34.91 20.63 50.43 5.41 M 0.06 63.65 C 21.67 41.33 43.11 18.07 50.58 5.54 M 0.06 63.65 C 20.24 40.44 40.38 17.47 50.58 5.54 M 0.21 63.78 C 21.07 44.21 38.53 19.69 50.73 5.67 M 0.21 63.78 C 12.52 49.25 27.96 32.27 50.73 5.67 M 0.36 63.92 C 19.69 46.97 35.8 23.66 50.88 5.8 M 0.36 63.92 C 10.92 50.41 21.13 38.87 50.88 5.8 M -0.14 64.8 C 18.22 40.62 33.71 23.56 51.03 5.93 M -0.14 64.8 C 15.62 45.8 32.18 29.03 51.03 5.93 M 0.01 64.93 C 14.18 48.05 23.96 38.29 51.18 6.07 M 0.01 64.93 C 13.83 48.5 28.01 30.53 51.18 6.07 M 0.16 65.06 C 21.68 45.56 35.3 20.36 51.33 6.2 M 0.16 65.06 C 14.56 48.49 29.06 31.07 51.33 6.2 M 0.31 65.2 C 16.92 41.57 35.22 26.2 51.48 6.33 M 0.31 65.2 C 10.62 52.7 22.76 40.57 51.48 6.33 M 0.46 65.33 C 8 47.79 25.32 35.52 51.63 6.46 M 0.46 65.33 C 16.02 49.75 28.47 34.82 51.63 6.46 M 0.61 65.46 C 16.15 43.38 41.03 23.41 51.78 6.59 M 0.61 65.46 C 18.8 44.48 38.23 19.68 51.78 6.59 M 0.76 65.59 C 17.28 39.32 40.11 14.91 51.94 6.72 M 0.76 65.59 C 13.69 47.3 30.2 30.86 51.94 6.72 M 0.26 66.48 C 18.65 44.1 41.31 19.45 52.09 6.85 M 0.26 66.48 C 17.25 49.18 33.76 28.08 52.09 6.85 M 0.41 66.61 C 19.99 45.03 30.01 32.35 52.24 6.98 M 0.41 66.61 C 13.05 53.24 22.9 40.56 52.24 6.98 M 0.56 66.74 C 15.46 42.92 38.71 27.48 52.39 7.12 M 0.56 66.74 C 9.3 54.5 19.39 44.66 52.39 7.12 M 0.71 66.87 C 12.04 55.83 27.49 41.44 53.2 6.49 M 0.71 66.87 C 20.46 41.87 43.62 16.63 53.2 6.49 M 0.86 67 C 15.37 52.33 27.94 35.21 53.35 6.62 M 0.86 67 C 20.36 41.88 44.72 19.41 53.35 6.62 M 1.01 67.13 C 16.97 49.7 29.44 30.59 53.5 6.75 M 1.01 67.13 C 18.8 45.66 35.32 26.72 53.5 6.75 M 1.16 67.26 C 13.97 51.22 29.62 36.01 53.65 6.89 M 1.16 67.26 C 21.79 43.85 40.71 25.05 53.65 6.89 M 1.31 67.39 C 15.61 52.91 25.54 44.62 53.8 7.02 M 1.31 67.39 C 22.76 43.51 42.14 21 53.8 7.02 M 1.47 67.52 C 17.38 55.94 28.07 38.35 53.95 7.15 M 1.47 67.52 C 17.35 49.38 30.94 32.73 53.95 7.15 M 1.62 67.66 C 20.6 46.51 39.33 19.44 54.1 7.28 M 1.62 67.66 C 18.77 46.84 35.43 31.25 54.1 7.28 M 1.11 68.54 C 12.38 57.92 20.13 40.16 54.25 7.41 M 1.11 68.54 C 14.73 52.71 28.86 33.57 54.25 7.41 M 1.26 68.67 C 16.21 43.81 40.41 27.56 54.4 7.54 M 1.26 68.67 C 14.73 49.3 32.43 31.75 54.4 7.54 M 1.41 68.8 C 11.85 50.71 25.87 36.18 54.55 7.67 M 1.41 68.8 C 19.68 45.75 39.39 27.62 54.55 7.67 M 1.56 68.94 C 15.01 53.74 25.65 46.16 54.71 7.8 M 1.56 68.94 C 24.96 44.81 44.84 22.5 54.71 7.8 M 1.72 69.07 C 17.79 52.15 33.76 35.46 54.86 7.94 M 1.72 69.07 C 15.05 50.95 28.29 35.88 54.86 7.94 M 1.87 69.2 C 23.72 45.14 40.31 27.27 55.01 8.07 M 1.87 69.2 C 11.53 55.18 22.58 43.78 55.01 8.07 M 2.02 69.33 C 14.09 51.41 35.53 36.81 55.16 8.2 M 2.02 69.33 C 16.54 52.76 31.73 35.66 55.16 8.2 M 2.17 69.46 C 16.07 54.64 30.13 40.31 55.31 8.33 M 2.17 69.46 C 11.82 54.82 24.39 44.52 55.31 8.33 M 2.32 69.59 C 23.62 43.72 38 27.19 55.46 8.46 M 2.32 69.59 C 15.14 54.82 25.73 42.71 55.46 8.46 M 1.81 70.48 C 13.18 53.61 31.07 40.73 55.61 8.59 M 1.81 70.48 C 18.15 53.17 31.37 37.79 55.61 8.59 M 1.96 70.61 C 25.9 47.29 37.1 27 55.76 8.72 M 1.96 70.61 C 10.13 58.27 21.87 44.43 55.76 8.72 M 2.12 70.74 C 15.21 53.43 31.22 37.14 55.91 8.85 M 2.12 70.74 C 18.86 53.99 35.29 32.23 55.91 8.85 M 2.27 70.87 C 14.28 52.88 34.16 35.89 56.72 8.23 M 2.27 70.87 C 15.12 54.83 27.65 41.84 56.72 8.23 M 2.42 71 C 15.92 55.98 29.04 36.39 56.87 8.36 M 2.42 71 C 15.51 54.21 24.9 41.69 56.87 8.36 M 2.57 71.13 C 23.19 48.23 40.14 32.02 57.02 8.49 M 2.57 71.13 C 19.78 54.13 32.47 36.69 57.02 8.49 M 2.72 71.26 C 15.27 54.22 31.39 41.25 57.17 8.62 M 2.72 71.26 C 24.49 48.27 43.98 21.93 57.17 8.62 M 2.87 71.4 C 19.2 52.42 35.46 40.22 57.32 8.76 M 2.87 71.4 C 15.56 57.04 29.43 40.64 57.32 8.76 M 3.02 71.53 C 17.24 62.14 25.78 43.42 57.47 8.89 M 3.02 71.53 C 22.41 49.04 40.78 25.19 57.47 8.89 M 3.17 71.66 C 20.91 52.48 42.56 26.16 57.63 9.02 M 3.17 71.66 C 19.55 53.49 36.71 32.38 57.63 9.02 M 3.32 71.79 C 12.96 58.03 29.69 43.03 57.78 9.15 M 3.32 71.79 C 19.51 52.66 36.84 34.28 57.78 9.15 M 3.47 71.92 C 22.89 53.52 40.7 29.42 57.93 9.28 M 3.47 71.92 C 16 59.05 27.59 44.19 57.93 9.28 M 3.63 72.05 C 23.96 48.38 43.08 28.96 58.08 9.41 M 3.63 72.05 C 17.78 53.21 33.76 39.03 58.08 9.41 M 3.78 72.18 C 26.16 49.56 42.87 23.69 58.23 9.54 M 3.78 72.18 C 24.2 48.43 47.69 20.25 58.23 9.54 M 3.93 72.31 C 15.68 55.22 30.85 42.82 57.72 10.43 M 3.93 72.31 C 19.2 55.03 32.13 40.45 57.72 10.43 M 4.08 72.45 C 21.33 49.87 35.28 33.43 57.87 10.56 M 4.08 72.45 C 18.25 56.44 28.61 42.6 57.87 10.56 M 4.23 72.58 C 24.63 47.73 38.16 27.77 58.03 10.69 M 4.23 72.58 C 23.34 47.36 45.79 24.49 58.03 10.69 M 5.04 71.95 C 17.6 57.91 34.39 37.94 58.18 10.82 M 5.04 71.95 C 17.1 60.61 26.18 47.31 58.18 10.82 M 5.19 72.08 C 21.59 51.94 38.2 34.05 58.33 10.95 M 5.19 72.08 C 16.96 56.73 28.8 44.57 58.33 10.95 M 5.34 72.22 C 24.61 51.71 43.54 22.16 58.48 11.08 M 5.34 72.22 C 25.08 50.81 45.36 27.04 58.48 11.08 M 5.49 72.35 C 24.03 47.08 49.28 23.89 58.63 11.22 M 5.49 72.35 C 27.43 51.02 46.55 25.95 58.63 11.22 M 5.64 72.48 C 20.04 54.36 34.11 35.12 58.78 11.35 M 5.64 72.48 C 26.9 48.62 46.59 25.28 58.78 11.35 M 5.79 72.61 C 25.77 46.84 46.93 23.35 58.93 11.48 M 5.79 72.61 C 24.46 54.05 40.04 32.56 58.93 11.48 M 5.94 72.74 C 19.82 56.75 37.27 35 59.08 11.61 M 5.94 72.74 C 24.54 50.22 42.86 30.24 59.08 11.61 M 6.09 72.87 C 23.09 54.6 43.95 36.4 58.58 12.5 M 6.09 72.87 C 27.1 47.61 45.26 26.03 58.58 12.5 M 6.24 73 C 20.7 50.61 41.08 31.81 58.73 12.63 M 6.24 73 C 20.33 55.22 33.16 40.57 58.73 12.63 M 6.39 73.13 C 24.01 51.89 36.34 32.53 58.88 12.76 M 6.39 73.13 C 27.5 50.77 43.33 29.73 58.88 12.76 M 6.55 73.27 C 26.81 49.01 39.04 34.52 59.03 12.89 M 6.55 73.27 C 16.98 59.44 25.91 49.01 59.03 12.89 M 6.7 73.4 C 28.92 48.4 43.92 26.66 59.18 13.02 M 6.7 73.4 C 18.24 59.2 28.93 48.92 59.18 13.02 M 6.85 73.53 C 28.68 51.98 47.98 25.95 59.33 13.15 M 6.85 73.53 C 28.4 50.13 48.44 27.16 59.33 13.15 M 7 73.66 C 26.05 52.88 40.34 28.85 59.48 13.28 M 7 73.66 C 26.92 54.19 44.04 30.74 59.48 13.28 M 7.15 73.79 C 23.87 47.31 49.43 26.78 59.63 13.41 M 7.15 73.79 C 26.52 53.61 48.75 28.39 59.63 13.41 M 7.3 73.92 C 25.08 52.78 41.93 36.08 59.78 13.54 M 7.3 73.92 C 18.42 61.16 34.63 43.54 59.78 13.54 M 7.45 74.05 C 23.18 61.13 33.13 46.43 59.94 13.68 M 7.45 74.05 C 18.49 62.73 27.43 47.06 59.94 13.68 M 7.6 74.18 C 23.93 59.22 29.3 45.54 59.43 14.56 M 7.6 74.18 C 25.27 55.39 37.73 38.06 59.43 14.56 M 7.75 74.32 C 19.47 61.71 37.22 46.76 59.58 14.69 M 7.75 74.32 C 24.03 57.53 40.34 35.54 59.58 14.69 M 7.9 74.45 C 20.72 59.87 32.03 46.64 59.73 14.82 M 7.9 74.45 C 21.23 61.59 33.44 50.67 59.73 14.82 M 8.05 74.58 C 20.84 55 35.99 45.25 59.88 14.96 M 8.05 74.58 C 29.18 52.51 44.66 30.96 59.88 14.96 M 8.21 74.71 C 22.26 60.04 34.52 43.46 60.03 15.09 M 8.21 74.71 C 22.96 58.99 38.55 41.68 60.03 15.09 M 8.36 74.84 C 18.58 59.78 31.98 43 60.19 15.22 M 8.36 74.84 C 19.5 61.36 29.05 48.69 60.19 15.22 M 8.51 74.97 C 25.68 58.24 43.93 33.32 60.34 15.35 M 8.51 74.97 C 19.49 64.45 30.45 49.29 60.34 15.35 M 8.66 75.1 C 24.43 52.94 39.98 37.67 59.83 16.24 M 8.66 75.1 C 19.34 63.08 30.06 52.32 59.83 16.24 M 8.81 75.23 C 23.62 55.86 36.66 44.85 59.98 16.37 M 8.81 75.23 C 24.49 55.1 41.17 33.15 59.98 16.37 M 8.96 75.36 C 24.03 58.68 42.02 35.64 60.13 16.5 M 8.96 75.36 C 20.49 62.78 33.23 49.62 60.13 16.5 M 9.11 75.5 C 28.02 51.37 40.29 35.69 60.28 16.63 M 9.11 75.5 C 19.1 62.98 32.61 47.41 60.28 16.63 M 9.26 75.63 C 17.25 60.36 25.49 49.73 59.78 17.51 M 9.26 75.63 C 19.67 61.27 32.86 47.42 59.78 17.51 M 10.07 75 C 30.35 58.33 40.64 35.66 59.93 17.65 M 10.07 75 C 24.57 56.9 38.1 41.4 59.93 17.65 M 10.22 75.14 C 20.36 60.55 34.16 46.1 60.08 17.78 M 10.22 75.14 C 20.76 64.75 32.85 51.95 60.08 17.78 M 10.37 75.27 C 25.13 54.4 48.84 37.68 60.23 17.91 M 10.37 75.27 C 23.89 55.87 38.37 41.25 60.23 17.91 M 10.52 75.4 C 22.92 57.69 38.2 36.57 60.38 18.04 M 10.52 75.4 C 29.01 55.37 48.68 32.81 60.38 18.04 M 10.67 75.53 C 26.4 57.3 36.33 40.22 59.88 18.93 M 10.67 75.53 C 26.75 58.19 40.97 42.82 59.88 18.93 M 10.82 75.66 C 22.23 60.59 44.57 38.09 60.03 19.06 M 10.82 75.66 C 25.86 58.76 39.63 44.62 60.03 19.06 M 10.98 75.79 C 27.76 58.37 39.48 39.39 60.18 19.19 M 10.98 75.79 C 28.33 57.92 42.85 41.45 60.18 19.19 M 11.13 75.92 C 31.63 56.71 44.35 36.37 60.33 19.32 M 11.13 75.92 C 23.08 63.25 30.06 52.39 60.33 19.32 M 11.28 76.05 C 26.28 52.32 47.8 39.14 59.83 20.21 M 11.28 76.05 C 22.01 63.27 35.65 47.62 59.83 20.21 M 11.43 76.18 C 20.25 63.4 33.34 48.97 59.98 20.34 M 11.43 76.18 C 29.77 57.01 46.75 36.69 59.98 20.34 M 11.58 76.32 C 28.53 61.5 37.78 45.98 60.13 20.47 M 11.58 76.32 C 27.86 57.09 49.07 35.81 60.13 20.47 M 11.73 76.45 C 23.08 65.52 36.68 52.74 60.28 20.6 M 11.73 76.45 C 27.16 59.74 38.22 44.82 60.28 20.6 M 11.88 76.58 C 31.02 54.82 52.62 36.52 59.77 21.48 M 11.88 76.58 C 20.76 65.91 31.05 54.61 59.77 21.48 M 12.03 76.71 C 29.32 60.95 41.03 42.51 59.92 21.62 M 12.03 76.71 C 23.03 63.51 32.13 50.68 59.92 21.62 M 12.18 76.84 C 22.85 61.28 34.77 50.92 60.07 21.75 M 12.18 76.84 C 26.67 61.57 40.81 42.15 60.07 21.75 M 12.33 76.97 C 26.37 59.52 47.07 39.52 60.23 21.88 M 12.33 76.97 C 30.34 56.58 44.01 38.18 60.23 21.88 M 12.48 77.1 C 24.98 66.3 30.6 55.15 60.38 22.01 M 12.48 77.1 C 33.06 57.01 50.95 35.5 60.38 22.01 M 12.64 77.23 C 23.58 57.53 40.49 41.75 59.87 22.9 M 12.64 77.23 C 28.67 56.33 46.31 37.58 59.87 22.9 M 12.79 77.37 C 33.07 56.16 42.53 38.08 60.02 23.03 M 12.79 77.37 C 27.64 61.26 41.48 48.53 60.02 23.03 M 12.94 77.5 C 24.79 61.38 41.18 47.76 60.17 23.16 M 12.94 77.5 C 28.17 61.79 40.51 47.89 60.17 23.16 M 13.09 77.63 C 24.25 62.02 38.13 51.63 60.32 23.29 M 13.09 77.63 C 29.78 57.57 44.31 40.47 60.32 23.29 M 13.24 77.76 C 34.48 57.13 50.06 39.41 59.82 24.17 M 13.24 77.76 C 23.96 64.68 35.82 53.31 59.82 24.17 M 13.39 77.89 C 35.03 57.12 50.08 39.01 59.97 24.31 M 13.39 77.89 C 26.43 63.84 35.18 50.66 59.97 24.31 M 14.2 77.27 C 31.84 55.04 45.93 38.05 60.12 24.44 M 14.2 77.27 C 27.18 63.57 40.31 50.54 60.12 24.44 M 14.35 77.4 C 27.68 61.54 32.42 48.69 60.27 24.57 M 14.35 77.4 C 31.54 55.41 50.05 36.8 60.27 24.57 M 14.5 77.53 C 28.68 60.68 48.03 41.53 59.77 25.45 M 14.5 77.53 C 33.29 56.42 52.37 38.26 59.77 25.45 M 14.65 77.66 C 29.59 60.43 43.32 40.81 59.92 25.59 M 14.65 77.66 C 26.7 63.58 36.89 50.99 59.92 25.59 M 14.8 77.79 C 24.38 62.92 42.31 46.47 60.07 25.72 M 14.8 77.79 C 29.59 62.85 40.12 44.77 60.07 25.72 M 14.95 77.92 C 25.4 65.98 38.24 52.48 60.22 25.85 M 14.95 77.92 C 32.22 60.18 47.58 41.58 60.22 25.85 M 15.1 78.05 C 27.37 67.01 38.73 48.03 60.37 25.98 M 15.1 78.05 C 26.53 66.79 36.01 57.96 60.37 25.98 M 15.25 78.19 C 31.43 66.52 40.93 47.43 59.87 26.87 M 15.25 78.19 C 32.52 58.75 47.98 38.24 59.87 26.87 M 16.06 77.56 C 22.39 63.03 34.66 57.59 60.02 27 M 16.06 77.56 C 29.54 62.31 41.75 50.19 60.02 27 M 16.21 77.69 C 31.57 59.92 41.82 50.97 60.17 27.13 M 16.21 77.69 C 29.25 64.62 42.06 51.82 60.17 27.13 M 16.36 77.82 C 24.21 66.02 32.62 54.73 60.32 27.26 M 16.36 77.82 C 30.88 60.5 48.27 38.16 60.32 27.26 M 16.51 77.96 C 33.07 65 40.45 50.76 59.81 28.14 M 16.51 77.96 C 33.38 57.97 51.45 41.04 59.81 28.14 M 16.66 78.09 C 30.03 55.03 53.6 43.03 59.96 28.28 M 16.66 78.09 C 28.68 62.33 42.05 51.46 59.96 28.28 M 16.82 78.22 C 36.52 56.61 47.43 43.86 60.12 28.41 M 16.82 78.22 C 27.33 66.15 41.25 48.79 60.12 28.41 M 16.97 78.35 C 31.16 64.95 44.7 49.47 60.27 28.54 M 16.97 78.35 C 30.43 60 44.65 45.59 60.27 28.54 M 17.77 77.73 C 37.5 61.11 51.66 41.51 59.76 29.42 M 17.77 77.73 C 33.64 58.54 49.59 41.86 59.76 29.42 M 17.92 77.86 C 31.27 63.85 44.42 45.93 59.91 29.56 M 17.92 77.86 C 32.64 62.17 46.72 43.74 59.91 29.56 M 18.08 77.99 C 26.63 60.59 40.49 54.07 60.06 29.69 M 18.08 77.99 C 28.27 65.7 42.08 50.97 60.06 29.69 M 18.23 78.12 C 33.76 60.49 56.06 42.12 60.21 29.82 M 18.23 78.12 C 29.09 64.24 41.12 53.85 60.21 29.82 M 18.38 78.25 C 32.42 59.01 47.36 39.83 60.36 29.95 M 18.38 78.25 C 29.48 65.4 41.8 51.1 60.36 29.95 M 18.53 78.38 C 29.85 64.63 41.96 56.11 59.86 30.84 M 18.53 78.38 C 27.4 69.47 36.2 57.58 59.86 30.84 M 18.68 78.51 C 26.42 63.06 40.83 51.88 60.01 30.97 M 18.68 78.51 C 31 62.71 45.92 46.99 60.01 30.97 M 18.83 78.64 C 34.45 66.56 43.71 49.53 60.16 31.1 M 18.83 78.64 C 30.66 61.42 47.62 48.09 60.16 31.1 M 19.64 78.02 C 27.39 62.42 39.53 54.77 60.31 31.23 M 19.64 78.02 C 30.93 65.99 42.71 54.24 60.31 31.23 M 19.79 78.15 C 28.57 68.58 40.01 54.01 59.81 32.11 M 19.79 78.15 C 36.14 58.67 50.45 39.5 59.81 32.11 M 19.94 78.28 C 31.85 62.54 47.88 47.86 59.96 32.25 M 19.94 78.28 C 32.55 64.16 45.15 49.7 59.96 32.25 M 20.09 78.41 C 37.02 58.66 52.25 43.94 60.11 32.38 M 20.09 78.41 C 26.59 68.24 38.25 56.3 60.11 32.38 M 20.24 78.55 C 33.24 71.02 36.84 55.34 60.26 32.51 M 20.24 78.55 C 34.75 61.77 48.35 45.59 60.26 32.51 M 20.39 78.68 C 28.85 70.95 41.78 56.95 59.76 33.39 M 20.39 78.68 C 37.71 60.36 50.66 44.97 59.76 33.39 M 20.54 78.81 C 31.11 66.29 40.05 52.62 59.91 33.53 M 20.54 78.81 C 29.38 66.71 38.9 56.09 59.91 33.53 M 20.69 78.94 C 27.07 66.13 37.95 54.1 60.06 33.66 M 20.69 78.94 C 33.58 62.09 51.76 47.07 60.06 33.66 M 21.5 78.32 C 36.5 58.51 48.16 40.05 60.21 33.79 M 21.5 78.32 C 33.61 66.83 43.99 52.27 60.21 33.79 M 21.65 78.45 C 36.39 59.08 48.1 40.69 60.36 33.92 M 21.65 78.45 C 36.38 62.01 53.56 43.67 60.36 33.92 M 21.8 78.58 C 33.42 66.45 50.21 49.57 59.85 34.81 M 21.8 78.58 C 33.12 64.75 46.17 52.61 59.85 34.81 M 21.95 78.71 C 34.42 66.83 42.72 52.01 60 34.94 M 21.95 78.71 C 36.49 61.02 52.02 45.96 60 34.94 M 22.1 78.84 C 32.64 65.46 54.56 42.08 60.16 35.07 M 22.1 78.84 C 35.67 61.96 45.11 50.04 60.16 35.07 M 22.26 78.97 C 35.73 59.48 49.32 43.55 60.31 35.2 M 22.26 78.97 C 37.81 62.6 51.34 44.25 60.31 35.2 M 22.41 79.1 C 32.78 68.43 43.02 58.33 59.8 36.08 M 22.41 79.1 C 37.12 64.6 50.71 48.01 59.8 36.08 M 22.56 79.23 C 33.87 60.42 56.03 46.98 59.95 36.22 M 22.56 79.23 C 37.15 63.08 50.86 48.09 59.95 36.22 M 23.36 78.61 C 33.62 66.33 38.85 56.68 60.1 36.35 M 23.36 78.61 C 36.45 63.96 47.98 51.99 60.1 36.35 M 23.52 78.74 C 32.16 69.79 42.47 63.55 60.25 36.48 M 23.52 78.74 C 34.95 67.72 45.48 56.26 60.25 36.48 M 23.67 78.87 C 34.06 63.8 50.21 50.09 59.75 37.36 M 23.67 78.87 C 31.58 68.26 39.05 61.04 59.75 37.36 M 23.82 79 C 37.17 64.63 50.21 49.32 59.9 37.5 M 23.82 79 C 33.41 65.36 45.51 55.81 59.9 37.5 M 23.97 79.14 C 40.76 61.03 46.91 53.43 60.05 37.63 M 23.97 79.14 C 31.51 67.64 39.81 61.29 60.05 37.63 M 24.12 79.27 C 32.33 71.38 42.91 54.91 60.2 37.76 M 24.12 79.27 C 36.88 65.65 51.19 52.28 60.2 37.76 M 24.27 79.4 C 31.83 67.01 42.49 57.54 60.35 37.89 M 24.27 79.4 C 33.02 72.26 37.17 60.72 60.35 37.89 M 24.42 79.53 C 33.65 69.18 49.69 53.27 59.85 38.77 M 24.42 79.53 C 33.73 65.04 45.53 51.8 59.85 38.77 M 25.23 78.91 C 32.92 69.74 41.79 62.73 60 38.91 M 25.23 78.91 C 36.38 64.8 51.29 48.87 60 38.91 M 25.38 79.04 C 33.08 65.47 43.54 56.67 60.15 39.04 M 25.38 79.04 C 32.48 70.45 38.85 63 60.15 39.04 M 25.53 79.17 C 42.44 62.63 49.17 49.32 60.3 39.17 M 25.53 79.17 C 33.5 66.83 44.67 58.39 60.3 39.17 M 25.68 79.3 C 31.6 72.72 42.47 61.27 59.8 40.05 M 25.68 79.3 C 36.78 70.01 45.44 57.29 59.8 40.05 M 25.83 79.43 C 35.43 71.02 40.42 61.3 59.95 40.19 M 25.83 79.43 C 36.68 68.26 45.81 60.51 59.95 40.19 M 25.98 79.56 C 37.85 65.81 45.15 52.49 60.1 40.32 M 25.98 79.56 C 32.15 72.18 40.09 63.24 60.1 40.32 M 26.13 79.69 C 38.36 71.98 47.78 60.51 60.25 40.45 M 26.13 79.69 C 38.26 64.27 52.77 48.05 60.25 40.45 M 26.28 79.82 C 40.54 66.67 51.89 50.16 59.74 41.33 M 26.28 79.82 C 36.36 65.86 48.17 51.92 59.74 41.33 M 27.09 79.2 C 36.53 69.27 50.16 59.21 59.89 41.47 M 27.09 79.2 C 37.07 67.35 46.37 56.96 59.89 41.47 M 27.24 79.33 C 40.06 64.14 56.29 51.19 60.05 41.6 M 27.24 79.33 C 38.96 68.7 46.27 55.09 60.05 41.6 M 27.39 79.46 C 38.22 71 43.32 63.27 60.2 41.73 M 27.39 79.46 C 36.78 68.54 44.97 61.64 60.2 41.73 M 27.54 79.59 C 35.97 65.69 48.26 57.81 60.35 41.86 M 27.54 79.59 C 38.66 66.55 51.82 54.36 60.35 41.86 M 27.7 79.73 C 39.01 65.15 47.73 59.58 59.84 42.74 M 27.7 79.73 C 38.27 67.84 46.34 56.43 59.84 42.74 M 27.85 79.86 C 36.26 67.82 44.8 57.63 59.99 42.88 M 27.85 79.86 C 38.99 64.83 51.12 52.33 59.99 42.88 M 28 79.99 C 35.25 67.48 50.15 51.51 60.14 43.01 M 28 79.99 C 41.15 67.13 52.2 53.02 60.14 43.01 M 28.15 80.12 C 32.2 68.97 46.89 65.15 60.29 43.14 M 28.15 80.12 C 39.58 66.22 53.47 53.28 60.29 43.14 M 28.95 79.5 C 38.32 72.57 43.72 61.39 59.79 44.02 M 28.95 79.5 C 39.56 64.74 52.56 53.81 59.79 44.02 M 29.11 79.63 C 42.67 67.14 51.9 51.8 59.94 44.16 M 29.11 79.63 C 37.92 67.33 52.38 53.61 59.94 44.16 M 29.26 79.76 C 37.21 74.3 46.89 61.35 60.09 44.29 M 29.26 79.76 C 37.62 69.98 47.91 59.34 60.09 44.29 M 29.41 79.89 C 41.95 67.45 47.87 59.32 60.24 44.42 M 29.41 79.89 C 40.29 66.91 53.59 51.56 60.24 44.42 M 29.56 80.02 C 35.51 67.23 46.67 55.79 59.74 45.3 M 29.56 80.02 C 36.43 71.67 42.88 65.74 59.74 45.3 M 29.71 80.15 C 41.48 68.35 44.12 64.85 59.89 45.44 M 29.71 80.15 C 40.18 68.91 45.85 60.34 59.89 45.44 M 29.86 80.28 C 39.26 67.75 51.39 52.23 60.04 45.57 M 29.86 80.28 C 43.29 65.49 51.74 52.3 60.04 45.57 M 30.67 79.66 C 43.38 66.92 46.17 62.45 60.19 45.7 M 30.67 79.66 C 39.77 66.73 53.43 57.23 60.19 45.7 M 30.82 79.79 C 42.26 71.25 56.26 53.59 60.34 45.83 M 30.82 79.79 C 36.29 74.55 45.47 63.44 60.34 45.83 M 30.97 79.92 C 34.22 70.3 44.63 65.25 59.84 46.71 M 30.97 79.92 C 38.32 71.66 47.04 63.16 59.84 46.71 M 31.12 80.05 C 42.9 70.44 47.61 57.82 59.99 46.85 M 31.12 80.05 C 39.19 68.35 51.9 57.25 59.99 46.85 M 31.27 80.18 C 38 69.15 50.13 52.52 60.14 46.98 M 31.27 80.18 C 40.92 68.67 54.73 53.98 60.14 46.98 M 32.08 79.56 C 37.84 67.47 49.55 56.23 60.29 47.11 M 32.08 79.56 C 38.98 75.33 45.08 65 60.29 47.11 M 32.23 79.69 C 42.8 67.57 50.15 55.75 59.78 47.99 M 32.23 79.69 C 43.76 68.69 53.04 57.21 59.78 47.99 M 32.38 79.82 C 38.93 65.79 55.22 56 59.93 48.13 M 32.38 79.82 C 41.34 73.14 49.31 63.15 59.93 48.13 M 32.53 79.95 C 38.97 70.94 52.58 55.39 60.09 48.26 M 32.53 79.95 C 38.51 72.23 47.07 63.23 60.09 48.26 M 33.34 79.33 C 40.15 65.08 49.9 58.72 60.24 48.39 M 33.34 79.33 C 41.47 72.02 50.23 60.28 60.24 48.39 M 33.49 79.46 C 37.85 69.44 49.27 61.91 60.39 48.52 M 33.49 79.46 C 46.24 65.3 56.37 53.77 60.39 48.52 M 33.64 79.59 C 47.06 68.95 53.99 53.92 59.88 49.41 M 33.64 79.59 C 43.61 69.49 48.38 60.61 59.88 49.41 M 33.79 79.72 C 39.75 71.99 50.58 58.71 60.03 49.54 M 33.79 79.72 C 38.14 73.62 45.6 66.79 60.03 49.54 M 34.6 79.1 C 44.85 68.26 48.41 62.53 60.18 49.67 M 34.6 79.1 C 42.37 67.3 51.8 56.2 60.18 49.67 M 34.75 79.23 C 42.24 71.39 50.11 60.64 60.34 49.8 M 34.75 79.23 C 41.49 67.83 51.41 60.7 60.34 49.8 M 34.9 79.36 C 40.29 69.02 45.34 60.91 59.83 50.68 M 34.9 79.36 C 41.33 69.39 52.22 62.47 59.83 50.68 M 35.05 79.49 C 44.21 70.24 55.12 61.5 59.98 50.82 M 35.05 79.49 C 41.68 72.53 46.19 66.6 59.98 50.82 M 35.86 78.87 C 45.45 70.41 53.95 60.7 60.13 50.95 M 35.86 78.87 C 42.81 71.68 46.69 68.15 60.13 50.95 M 36.01 79 C 41.46 70.22 46.12 64.84 60.28 51.08 M 36.01 79 C 43.75 71.42 51.64 61.38 60.28 51.08 M 36.16 79.13 C 41.43 67.67 51.9 61.66 59.78 51.96 M 36.16 79.13 C 44.66 71.94 51.09 63.71 59.78 51.96 M 36.31 79.26 C 45.65 66.72 52.08 56.19 59.93 52.1 M 36.31 79.26 C 43.92 70.3 53.52 61.78 59.93 52.1 M 36.46 79.4 C 38.49 76.4 48.55 65.62 60.08 52.23 M 36.46 79.4 C 44.45 69.9 49.96 61.98 60.08 52.23 M 37.27 78.77 C 46.76 67.33 49.5 58.9 60.23 52.36 M 37.27 78.77 C 46.98 70.85 52.24 61.13 60.23 52.36 M 37.42 78.9 C 41.85 69 51.34 66.97 60.38 52.49 M 37.42 78.9 C 43.68 68.55 54.66 59.5 60.38 52.49 M 37.57 79.04 C 46.06 66.94 53.12 54.45 59.88 53.37 M 37.57 79.04 C 45.86 70.57 56.4 60.78 59.88 53.37 M 37.72 79.17 C 45.32 72.98 54.27 62.14 60.03 53.51 M 37.72 79.17 C 44.1 70.96 51.21 62.95 60.03 53.51 M 38.53 78.54 C 47.04 74.82 54.75 65.77 60.18 53.64 M 38.53 78.54 C 44.84 71.89 50.32 62.92 60.18 53.64 M 38.68 78.67 C 40.47 74.93 47.13 65.56 60.33 53.77 M 38.68 78.67 C 42.06 75.28 47.22 66.4 60.33 53.77 M 38.83 78.81 C 44.23 70.79 55.28 58.25 59.82 54.65 M 38.83 78.81 C 43.79 74.4 46.69 69.69 59.82 54.65 M 38.98 78.94 C 44.62 69.63 49.51 61.33 59.98 54.79 M 38.98 78.94 C 45.4 72.67 51.98 66.67 59.98 54.79 M 39.79 78.31 C 43.15 69.88 50.05 58.87 60.13 54.92 M 39.79 78.31 C 49.02 67.9 57.12 60 60.13 54.92 M 39.94 78.44 C 46.18 69.04 57.37 63.69 60.28 55.05 M 39.94 78.44 C 48.55 68.01 55.43 60.84 60.28 55.05 M 40.09 78.58 C 41.58 73.77 51.79 71.4 59.77 55.93 M 40.09 78.58 C 47.6 71.05 53.72 64.59 59.77 55.93 M 40.24 78.71 C 50.36 69.84 54.57 59.45 59.92 56.07 M 40.24 78.71 C 45.9 71.21 54.15 64.87 59.92 56.07 M 41.05 78.08 C 41.03 71.83 45.34 70.21 60.07 56.2 M 41.05 78.08 C 45.55 74.8 48.72 67.08 60.07 56.2 M 41.2 78.21 C 45.03 76.87 46.27 69.72 60.22 56.33 M 41.2 78.21 C 44.12 71.24 47.62 69.82 60.22 56.33 M 41.35 78.35 C 49.67 74.6 54.71 66.9 60.38 56.46 M 41.35 78.35 C 45.02 75.17 50.63 68.27 60.38 56.46 M 41.5 78.48 C 45.51 75.99 47.29 72.88 59.87 57.34 M 41.5 78.48 C 49.76 70.47 53.15 62.26 59.87 57.34 M 41.65 78.61 C 51.85 71.67 52.7 64.6 60.02 57.48 M 41.65 78.61 C 47.45 73.02 55.23 66.11 60.02 57.48 M 42.46 77.98 C 49.35 72.16 49.44 65.06 60.17 57.61 M 42.46 77.98 C 45.8 71.12 51.68 66.98 60.17 57.61 M 42.61 78.12 C 43.01 70.88 52.01 70.55 60.32 57.74 M 42.61 78.12 C 48.05 70.47 53.39 63.23 60.32 57.74 M 42.76 78.25 C 49.83 76.97 54.85 66.04 59.82 58.62 M 42.76 78.25 C 49.27 71.28 55.79 65.34 59.82 58.62 M 42.91 78.38 C 52.28 69.44 58.58 65.32 59.97 58.76 M 42.91 78.38 C 48.47 70.64 54.39 66.35 59.97 58.76 M 43.72 77.75 C 52.51 68.85 60.04 64.01 60.12 58.89 M 43.72 77.75 C 49.72 73.18 53.72 64.71 60.12 58.89 M 43.87 77.89 C 53 71.24 52.99 63.7 60.27 59.02 M 43.87 77.89 C 46.69 73.79 52.37 67.05 60.27 59.02 M 44.02 78.02 C 46.55 76.5 49.39 70.29 59.77 59.9 M 44.02 78.02 C 49.13 70.41 55.99 65.42 59.77 59.9 M 44.17 78.15 C 47.78 71.1 52.16 70.71 59.92 60.04 M 44.17 78.15 C 48.92 72 53.54 64.6 59.92 60.04 M 44.98 77.52 C 50.59 74.97 52.69 64.9 60.07 60.17 M 44.98 77.52 C 48.48 69.58 55.17 66.19 60.07 60.17 M 45.13 77.66 C 52.31 73.73 55.06 68.78 60.22 60.3 M 45.13 77.66 C 52.15 69.91 56.4 66 60.22 60.3 M 45.28 77.79 C 52.39 74.6 57.3 67.79 60.37 60.43 M 45.28 77.79 C 46.94 75.57 52.72 69.23 60.37 60.43 M 45.43 77.92 C 44.83 71.16 51.54 71.23 59.86 61.31 M 45.43 77.92 C 49.19 70.45 55.41 64.09 59.86 61.31 M 46.24 77.29 C 47.79 71.72 53.03 66.78 60.02 61.45 M 46.24 77.29 C 50.56 72.79 56.34 64.05 60.02 61.45 M 46.39 77.43 C 51.22 69.44 59.38 69.07 60.17 61.58 M 46.39 77.43 C 49.83 71.07 57.76 66.2 60.17 61.58 M 46.54 77.56 C 48.71 69.11 58.7 65.89 60.32 61.71 M 46.54 77.56 C 49.52 72.77 53.86 64.88 60.32 61.71 M 46.69 77.69 C 53.29 76.78 51.26 73.29 59.81 62.59 M 46.69 77.69 C 51.03 73.42 51.9 70.35 59.81 62.59 M 47.5 77.06 C 50.55 69.06 53.61 69.09 59.96 62.73 M 47.5 77.06 C 52.64 71.72 57.08 68.03 59.96 62.73 M 47.65 77.2 C 51.96 73.22 55.55 68.81 60.11 62.86 M 47.65 77.2 C 49.91 72.71 55.34 70.03 60.11 62.86 M 48.46 76.57 C 54.79 73.2 57.18 69.58 60.27 62.99 M 48.46 76.57 C 52.83 72.34 52.73 70.53 60.27 62.99 M 49.26 75.95 C 51.46 72.44 54.52 68.52 59.76 63.87 M 49.26 75.95 C 52.98 70.6 54.84 67.24 59.76 63.87 M 49.41 76.08 C 50.02 72 55.63 67.72 59.91 64 M 49.41 76.08 C 50.12 72.32 54.89 69.76 59.91 64 M 50.22 75.46 C 51.68 73.98 59.37 68.73 60.06 64.14 M 50.22 75.46 C 51.48 71.86 54.36 71.57 60.06 64.14 M 51.03 74.83 C 53.34 68.65 60.5 65.15 60.21 64.27 M 51.03 74.83 C 53.64 71.94 58.34 66.37 60.21 64.27 M 51.18 74.96 C 54.44 68.68 57.84 68.58 60.36 64.4 M 51.18 74.96 C 54.11 72.36 57.05 70.66 60.36 64.4 M 51.99 74.34 C 56.99 72.76 56.23 65.56 59.86 65.28 M 51.99 74.34 C 54.03 71.16 58.29 68.13 59.86 65.28 M 52.14 74.47 C 55.71 69.6 56.05 67.25 60.01 65.42 M 52.14 74.47 C 53.96 73.28 57 70.78 60.01 65.42 M 52.94 73.85 C 54.21 73.09 56.5 68.46 59.5 66.3 M 52.94 73.85 C 54.5 70.26 58.25 68.43 59.5 66.3 M 53.75 73.23 C 53.8 73.37 54.37 70.96 59.66 66.43 M 53.75 73.23 C 56.01 70.91 57.09 68.08 59.66 66.43 M 53.9 73.36 C 55.17 70.98 56.83 72.31 59.15 67.32 M 53.9 73.36 C 54.54 72.39 56.16 70.69 59.15 67.32 M 54.71 72.73 C 56.62 71.95 57.18 69.87 58.65 68.2 M 54.71 72.73 C 56.68 70.45 57.4 69.45 58.65 68.2 M 55.52 72.11 C 55.33 70.56 56.9 71.05 58.8 68.34 M 55.52 72.11 C 56.56 71.63 56.99 70.48 58.8 68.34 M 55.67 72.24 C 56.65 70.75 56.47 70.06 58.29 69.22 M 55.67 72.24 C 56.09 71.39 56.96 70.87 58.29 69.22 M 56.47 71.62 C 57.26 71.17 57.08 69.97 58.44 69.35 M 56.47 71.62 C 56.76 70.76 57.55 70.48 58.44 69.35 M 57.28 70.99 C 57.35 70.65 57.58 70.34 57.94 70.24 M 57.28 70.99 C 57.42 70.64 57.76 70.43 57.94 70.24" fill="none" stroke="#000000" stroke-width="0.1" stroke-linejoin="round" stroke-linecap="round" stroke-miterlimit="10" pointer-events="all" transform="translate(2,3)" opacity="0.25"/><path d="M 4.88 6.89 C 4.88 6.89 4.88 6.89 4.88 6.89 M 4.88 6.89 C 4.88 6.89 4.88 6.89 4.88 6.89 M 4.38 7.78 C 4.37 7.64 5.39 6.97 5.69 6.27 M 4.38 7.78 C 4.74 7.19 5.14 7.03 5.69 6.27 M 3.87 8.67 C 3.89 7.75 4.84 7.15 5.84 6.4 M 3.87 8.67 C 4.55 8.12 4.7 7.32 5.84 6.4 M 3.37 9.55 C 4.24 9.08 4.78 7.42 5.99 6.53 M 3.37 9.55 C 3.91 8.85 4.87 8.21 5.99 6.53 M 2.86 10.44 C 5.35 9.35 5.49 6.9 6.8 5.91 M 2.86 10.44 C 4.33 9.31 5.73 8.02 6.8 5.91 M 1.7 12.08 C 4.46 9.74 5.08 8.26 6.95 6.04 M 1.7 12.08 C 4.26 9.63 6.43 6.77 6.95 6.04 M 1.19 12.96 C 2.82 12.55 4.16 7.58 7.1 6.17 M 1.19 12.96 C 3.84 10.64 5.45 9.1 7.1 6.17 M 0.69 13.85 C 2.79 13.02 2.66 8.48 7.91 5.55 M 0.69 13.85 C 4.6 10.51 6.9 8.26 7.91 5.55 M 0.18 14.74 C 5.19 9.76 5.87 10.03 8.06 5.68 M 0.18 14.74 C 2 13.1 5.02 9.41 8.06 5.68 M 0.34 14.87 C 1.29 9.47 8.37 6.93 8.21 5.81 M 0.34 14.87 C 3.3 12.7 5.92 9.22 8.21 5.81 M -0.17 15.75 C 0.8 13.96 2.74 11.17 9.02 5.19 M -0.17 15.75 C 1.03 11.82 3.63 9.09 9.02 5.19 M -0.02 15.88 C 2.15 11.18 5.42 13.42 9.17 5.32 M -0.02 15.88 C 2.97 11.91 7.3 8.09 9.17 5.32 M 0.13 16.01 C 4.85 10.28 7.6 7.36 9.32 5.45 M 0.13 16.01 C 2.31 13.19 4.68 9.78 9.32 5.45 M 0.28 16.15 C 1.12 12.74 8.32 11.94 10.12 4.83 M 0.28 16.15 C 1.84 12.59 5.03 8.44 10.12 4.83 M 0.43 16.28 C 3.19 13.14 11.07 9.96 10.27 4.96 M 0.43 16.28 C 2.44 13.57 4.96 9.76 10.27 4.96 M -0.07 17.16 C 4.18 13.08 8.18 11.44 10.43 5.09 M -0.07 17.16 C 2.88 13.41 8.72 7.11 10.43 5.09 M 0.08 17.29 C 4.04 16.64 9.19 7.47 11.23 4.46 M 0.08 17.29 C 3.89 14.83 5.04 9.41 11.23 4.46 M 0.23 17.43 C 1.72 16.15 7.61 10.48 11.38 4.6 M 0.23 17.43 C 3.29 15.79 5.46 12.73 11.38 4.6 M 0.38 17.56 C 7.51 16.48 5.06 11.47 11.53 4.73 M 0.38 17.56 C 2.72 15.1 7.16 10.46 11.53 4.73 M -0.12 18.44 C 5.28 13.1 10.19 9.49 12.34 4.1 M -0.12 18.44 C 4.86 15.94 8.05 9.1 12.34 4.1 M 0.03 18.57 C -0.1 11.38 2.46 12.38 12.49 4.23 M 0.03 18.57 C 5.04 16.15 6.23 11.57 12.49 4.23 M 0.18 18.71 C 6.93 17.91 7.44 8.69 13.3 3.61 M 0.18 18.71 C 4.84 13.47 6.3 11.01 13.3 3.61 M 0.33 18.84 C 4.47 13.61 10.52 8.75 13.45 3.74 M 0.33 18.84 C 5.31 12.03 11.24 10.21 13.45 3.74 M -0.18 19.72 C 4.14 13.32 3.78 8.49 13.6 3.87 M -0.18 19.72 C 4.25 16.26 8.61 10.49 13.6 3.87 M -0.02 19.85 C 2.11 16.53 5.46 6.2 14.41 3.25 M -0.02 19.85 C 5.53 16.48 9.33 11.48 14.41 3.25 M 0.13 19.98 C 5.42 20.42 6.67 16.44 14.56 3.38 M 0.13 19.98 C 3.22 12.61 7.38 11.31 14.56 3.38 M 0.28 20.12 C 9.06 12.69 8.35 9.36 14.71 3.51 M 0.28 20.12 C 4.4 15.85 7.6 12.29 14.71 3.51 M 0.43 20.25 C 4.42 12.76 9.13 15.38 15.52 2.89 M 0.43 20.25 C 4.88 17.17 6.84 14.53 15.52 2.89 M -0.08 21.13 C 8.81 12.58 7.8 8.9 15.67 3.02 M -0.08 21.13 C 5.44 17.11 9.75 10.91 15.67 3.02 M 0.07 21.26 C 0.68 14.44 10.26 15.07 15.82 3.15 M 0.07 21.26 C 3.35 17.72 7.74 12.22 15.82 3.15 M 0.22 21.4 C 7.69 14.13 12.81 9.15 16.63 2.53 M 0.22 21.4 C 3.25 16.45 5.91 11.86 16.63 2.53 M 0.38 21.53 C 5.96 19.54 11.2 13.18 16.78 2.66 M 0.38 21.53 C 7.21 13.84 13.75 8.69 16.78 2.66 M -0.13 22.41 C 6.78 13.86 12.08 11.33 16.93 2.79 M -0.13 22.41 C 6.19 17.89 7.81 10.78 16.93 2.79 M 0.02 22.54 C 9.78 16.79 13.3 11.17 17.74 2.17 M 0.02 22.54 C 5.73 13.4 15.46 6.18 17.74 2.17 M 0.17 22.68 C 9.98 17.82 15.44 9.31 17.89 2.3 M 0.17 22.68 C 6.31 18.14 12.32 11.22 17.89 2.3 M 0.32 22.81 C 3.11 17.83 14.47 7.65 18.04 2.43 M 0.32 22.81 C 3.62 16.91 8.03 14.67 18.04 2.43 M -0.18 23.69 C 8.1 19.41 14.92 11.96 18.84 1.81 M -0.18 23.69 C 3.59 16.27 8.77 10.83 18.84 1.81 M -0.03 23.82 C 2.67 20.91 12.87 11.81 19 1.94 M -0.03 23.82 C 3.41 20 7.59 14.7 19 1.94 M 0.12 23.95 C 2.65 14.77 13.36 15.35 19.15 2.07 M 0.12 23.95 C 3.4 16.83 10.89 12.9 19.15 2.07 M 0.27 24.09 C 4.28 18.2 7.51 13.89 19.95 1.44 M 0.27 24.09 C 8.89 15.09 13.8 10.44 19.95 1.44 M 0.42 24.22 C 5.43 20.44 9.63 9.35 20.1 1.58 M 0.42 24.22 C 8.32 14.61 15.56 9.08 20.1 1.58 M -0.08 25.1 C 9.12 20.52 10.05 15.03 20.25 1.71 M -0.08 25.1 C 7.78 18.17 13.14 11.29 20.25 1.71 M 0.07 25.23 C 7.45 16.89 9.93 8.82 21.06 1.08 M 0.07 25.23 C 2.59 21.57 9.3 13.73 21.06 1.08 M 0.22 25.37 C 8.2 21.65 8.4 13.1 21.21 1.21 M 0.22 25.37 C 7.46 16.73 17.83 6.81 21.21 1.21 M 0.37 25.5 C 7.21 19.45 15.93 2.28 21.36 1.35 M 0.37 25.5 C 6.37 16.28 14.45 9.16 21.36 1.35 M -0.14 26.38 C 4.88 18.4 17.88 9.57 22.17 0.72 M -0.14 26.38 C 8.23 16.23 15.57 11.09 22.17 0.72 M 0.02 26.51 C 2.95 22.33 14.6 13.2 22.32 0.85 M 0.02 26.51 C 4.97 19.56 7.59 14.08 22.32 0.85 M 0.17 26.65 C 8.26 21.6 12.26 12.82 22.47 0.98 M 0.17 26.65 C 3.52 20.59 8.8 14.55 22.47 0.98 M 0.32 26.78 C 6.12 18.12 13.85 5.86 23.28 0.36 M 0.32 26.78 C 7.32 15.19 17.58 6.01 23.28 0.36 M -0.19 27.66 C 6.77 16.51 22.23 5.45 23.43 0.49 M -0.19 27.66 C 5.75 20.03 15.63 12.19 23.43 0.49 M -0.04 27.79 C 11.18 20.73 17.63 9.95 23.58 0.62 M -0.04 27.79 C 6.14 20.2 16.09 12.19 23.58 0.62 M 0.11 27.92 C 10.52 22.16 15.26 11.34 23.73 0.76 M 0.11 27.92 C 8.28 19.33 14.48 12.43 23.73 0.76 M 0.27 28.06 C 7.24 19.27 12.7 10.13 24.54 0.13 M 0.27 28.06 C 8.29 18.34 14.87 10.24 24.54 0.13 M 0.42 28.19 C 7.09 13.61 18.11 6.44 24.69 0.26 M 0.42 28.19 C 5.17 19.77 13.33 13.69 24.69 0.26 M -0.09 29.07 C 3.3 26.93 10.31 18.46 24.84 0.39 M -0.09 29.07 C 3.84 22.05 12.54 15.78 24.84 0.39 M 0.06 29.2 C 9.92 22.12 11.19 16.91 24.99 0.53 M 0.06 29.2 C 8.57 20.61 16.22 10.39 24.99 0.53 M 0.21 29.34 C 1.98 18.72 8.89 14.42 25.14 0.66 M 0.21 29.34 C 9.91 20.11 20.59 5.73 25.14 0.66 M 0.36 29.47 C 8.62 19.71 16.06 14.83 25.29 0.79 M 0.36 29.47 C 5.95 21.35 15.24 13.87 25.29 0.79 M -0.14 30.35 C 6.83 19.16 16.44 10.88 26.1 0.16 M -0.14 30.35 C 10.16 21.14 18.94 9.42 26.1 0.16 M 0.01 30.48 C 5.83 22.92 12.44 17.26 26.25 0.3 M 0.01 30.48 C 7.43 23.5 14.21 14.73 26.25 0.3 M 0.16 30.61 C 11 20.91 15.53 13.54 26.4 0.43 M 0.16 30.61 C 6.92 24.02 11.52 15.41 26.4 0.43 M 0.31 30.75 C 11.56 18.22 22.35 7.16 26.55 0.56 M 0.31 30.75 C 5.21 21.85 11.5 17.21 26.55 0.56 M -0.19 31.63 C 8.96 16.81 19.61 12.06 26.7 0.69 M -0.19 31.63 C 5 22.24 11.76 15.04 26.7 0.69 M -0.04 31.76 C 3.06 28.79 12.05 20.99 26.86 0.82 M -0.04 31.76 C 7.96 24.98 13.66 15.36 26.86 0.82 M 0.11 31.89 C 10.51 19.32 19.02 7.72 27.66 0.2 M 0.11 31.89 C 11.45 21.81 21.37 11.36 27.66 0.2 M 0.26 32.03 C 8.46 20.66 13.11 12.73 27.81 0.33 M 0.26 32.03 C 12.89 18.21 21.82 5.95 27.81 0.33 M 0.41 32.16 C 10.29 18.97 17.51 7.25 27.96 0.46 M 0.41 32.16 C 5.78 23.16 12.64 16.92 27.96 0.46 M -0.09 33.04 C 10.47 18.52 19.62 4.95 28.12 0.59 M -0.09 33.04 C 7 24.9 14.47 17.78 28.12 0.59 M 0.06 33.17 C 3.61 30.14 8.92 19.6 28.27 0.72 M 0.06 33.17 C 7.65 21.86 16.4 13.91 28.27 0.72 M 0.21 33.31 C 3.57 20.58 17.23 15.22 28.42 0.85 M 0.21 33.31 C 10 20.95 19.41 12.18 28.42 0.85 M 0.36 33.44 C 10.48 19.34 19.05 12.85 28.57 0.98 M 0.36 33.44 C 5.6 26.91 14.92 18.37 28.57 0.98 M -0.15 34.32 C 11.63 25.75 14.24 17.23 29.38 0.36 M -0.15 34.32 C 8.49 23.27 20.5 13.46 29.38 0.36 M 0 34.45 C 5.16 30.26 13.48 18.74 29.53 0.49 M 0 34.45 C 8.82 23.42 16.58 14.59 29.53 0.49 M 0.15 34.58 C 10.74 26.46 24.69 6.99 29.68 0.62 M 0.15 34.58 C 9.92 21.49 22.87 8.65 29.68 0.62 M 0.31 34.72 C 9.27 22.75 13.09 13.04 29.83 0.75 M 0.31 34.72 C 13.14 20.86 21.52 7.52 29.83 0.75 M -0.2 35.6 C 12.09 21.87 20.69 8.32 29.98 0.89 M -0.2 35.6 C 11.11 21.28 23.39 7.03 29.98 0.89 M -0.05 35.73 C 10.12 26.48 25.4 6.61 30.13 1.02 M -0.05 35.73 C 8.3 27.45 14.52 19.17 30.13 1.02 M 0.1 35.86 C 10.42 24.73 26.88 12.41 30.94 0.39 M 0.1 35.86 C 9.72 22.61 21.48 10.48 30.94 0.39 M 0.25 36 C 4.12 28.82 16.85 19.19 31.09 0.52 M 0.25 36 C 11.05 23.52 18.11 13.8 31.09 0.52 M 0.4 36.13 C 9.08 19.67 24.28 11.66 31.24 0.66 M 0.4 36.13 C 9.55 25.48 17.32 14.22 31.24 0.66 M -0.1 37.01 C 8.75 23.17 20.34 11.27 31.39 0.79 M -0.1 37.01 C 8.52 29.96 15.08 21.42 31.39 0.79 M 0.05 37.14 C 10.91 26.59 26.01 8.53 31.54 0.92 M 0.05 37.14 C 11.31 24.45 25.59 9.27 31.54 0.92 M 0.2 37.28 C 15.85 21.4 25.14 8.34 31.69 1.05 M 0.2 37.28 C 9.85 24.95 20.06 17.06 31.69 1.05 M 0.35 37.41 C 6.82 27.87 18.28 15.37 32.5 0.43 M 0.35 37.41 C 9.21 26.59 17.78 18.68 32.5 0.43 M -0.15 38.29 C 10.67 29.46 15.73 18.13 32.65 0.56 M -0.15 38.29 C 10.01 29.39 17.3 16.85 32.65 0.56 M 0 38.42 C 8.3 27.29 16.19 24.98 32.8 0.69 M 0 38.42 C 6.1 30.81 15.68 24.73 32.8 0.69 M 0.15 38.55 C 7.88 21.33 22.66 13.76 32.95 0.82 M 0.15 38.55 C 9.32 30.81 15.21 19.43 32.95 0.82 M 0.3 38.69 C 11.18 28.33 27.42 12.95 33.1 0.95 M 0.3 38.69 C 8.51 28.34 17.29 18.29 33.1 0.95 M 0.45 38.82 C 15.55 27.63 26.03 8.51 33.25 1.08 M 0.45 38.82 C 6.22 30.74 13.01 24.9 33.25 1.08 M -0.05 39.7 C 11.08 30.04 17.85 19.29 33.4 1.21 M -0.05 39.7 C 10.61 24.5 24.86 12.56 33.4 1.21 M 0.1 39.83 C 7.24 29.53 14.69 25.82 34.21 0.59 M 0.1 39.83 C 11 24.34 23.86 12.34 34.21 0.59 M 0.25 39.97 C 5.38 27.9 14.42 17.67 34.36 0.72 M 0.25 39.97 C 14.37 26.54 26.54 12.5 34.36 0.72 M 0.4 40.1 C 15.22 26.02 28.14 16.03 34.51 0.85 M 0.4 40.1 C 7.78 29.17 19.6 20.92 34.51 0.85 M -0.11 40.98 C 8.85 31.26 16.79 17.55 34.66 0.98 M -0.11 40.98 C 11.42 28.8 18.84 19.42 34.66 0.98 M 0.04 41.11 C 15.21 28.69 21.93 14.17 34.82 1.11 M 0.04 41.11 C 12.41 23.85 27.49 11.31 34.82 1.11 M 0.2 41.25 C 14.34 25.16 26.98 11.19 34.97 1.25 M 0.2 41.25 C 10.26 30.93 16.67 21.2 34.97 1.25 M 0.35 41.38 C 7.44 29.71 16.6 16.33 35.77 0.62 M 0.35 41.38 C 11.32 28.55 27.48 11.28 35.77 0.62 M -0.16 42.26 C 9.04 30.02 21.69 16.23 35.92 0.75 M -0.16 42.26 C 11.07 29.23 19.33 18.52 35.92 0.75 M -0.01 42.39 C 12.69 33.43 19.58 25.26 36.08 0.88 M -0.01 42.39 C 8.98 31.82 18.57 22.22 36.08 0.88 M 0.14 42.52 C 9.08 28.71 19.33 21.51 36.23 1.02 M 0.14 42.52 C 13.98 29.45 23.57 12.07 36.23 1.02 M 0.29 42.66 C 14.22 31.15 28.89 9.35 36.38 1.15 M 0.29 42.66 C 13.55 25.74 29.12 9.7 36.38 1.15 M 0.44 42.79 C 11.69 33.93 14.53 26.63 36.53 1.28 M 0.44 42.79 C 10.54 30.53 22.13 19.95 36.53 1.28 M -0.06 43.67 C 14.45 26.43 29.89 8.03 37.33 0.65 M -0.06 43.67 C 10.95 35.02 20.3 21.46 37.33 0.65 M 0.09 43.8 C 9.63 28.59 22.82 16.51 37.49 0.79 M 0.09 43.8 C 14.45 29.31 27.25 14.53 37.49 0.79 M 0.24 43.94 C 12.88 29.05 22.71 23.23 37.64 0.92 M 0.24 43.94 C 8.7 36.09 16.93 26.17 37.64 0.92 M 0.39 44.07 C 13.53 32.97 22.41 14.25 37.79 1.05 M 0.39 44.07 C 11.1 35.52 18.44 24.85 37.79 1.05 M -0.11 44.95 C 4.22 33.25 17.56 26.02 37.94 1.18 M -0.11 44.95 C 15.29 27.49 30.32 10.27 37.94 1.18 M 0.04 45.08 C 8.15 32.94 23 21.22 38.09 1.31 M 0.04 45.08 C 6.53 36.94 14.3 27.9 38.09 1.31 M 0.19 45.21 C 14.68 29.67 20.34 19.66 38.24 1.44 M 0.19 45.21 C 12.99 28.48 28.49 8.95 38.24 1.44 M 0.34 45.35 C 5.79 36.23 22.39 20.56 39.05 0.82 M 0.34 45.35 C 9.59 35.32 15.41 25.65 39.05 0.82 M -0.16 46.23 C 12.98 32.39 26.16 18.12 39.2 0.95 M -0.16 46.23 C 6.45 37.29 16.7 27.53 39.2 0.95 M -0.01 46.36 C 8.68 29.87 25.65 20.6 39.35 1.08 M -0.01 46.36 C 15.18 28.92 27.22 12.52 39.35 1.08 M 0.14 46.49 C 14.26 31.88 31.69 14.4 39.5 1.21 M 0.14 46.49 C 10.54 34.52 23.45 17.79 39.5 1.21 M 0.29 46.63 C 12.67 41.82 16.81 32.07 39.65 1.34 M 0.29 46.63 C 11.03 36.44 19.02 23.74 39.65 1.34 M 0.44 46.76 C 15.02 33.24 29.53 11.51 39.8 1.47 M 0.44 46.76 C 13.22 36.76 23.37 23.49 39.8 1.47 M -0.07 47.64 C 14.24 29.53 21.85 21.44 40.61 0.85 M -0.07 47.64 C 9.83 38.01 19.99 28.11 40.61 0.85 M 0.08 47.77 C 15.62 36.07 29.21 16.59 40.76 0.98 M 0.08 47.77 C 9.47 39.51 16.39 25.92 40.76 0.98 M 0.24 47.91 C 14 30.59 31.11 15.27 40.91 1.11 M 0.24 47.91 C 15.24 32.31 28.51 17.13 40.91 1.11 M 0.39 48.04 C 8.63 34.78 20.23 19.82 41.06 1.24 M 0.39 48.04 C 9.88 38.81 16.09 29.45 41.06 1.24 M -0.12 48.92 C 12.01 38.79 20.4 25.41 41.21 1.38 M -0.12 48.92 C 14.9 33.24 26.72 14.69 41.21 1.38 M 0.03 49.05 C 19.33 31.74 31.7 12.07 41.36 1.51 M 0.03 49.05 C 15.54 28.83 30.79 11.46 41.36 1.51 M 0.18 49.18 C 11.18 35.42 25.22 23.21 41.52 1.64 M 0.18 49.18 C 16.38 34.01 30.71 16.75 41.52 1.64 M 0.33 49.32 C 16.57 36.86 24.05 22.33 42.32 1.01 M 0.33 49.32 C 11.35 35.89 21.98 24.38 42.32 1.01 M -0.17 50.2 C 10.72 37.44 14.6 26.51 42.47 1.15 M -0.17 50.2 C 9.63 36.69 18.58 25.43 42.47 1.15 M -0.02 50.33 C 12.57 34.91 22.87 22.08 42.62 1.28 M -0.02 50.33 C 10.3 39.1 19.36 27.61 42.62 1.28 M 0.13 50.46 C 17.09 31.35 29.7 18.64 42.77 1.41 M 0.13 50.46 C 12.83 37.97 23 24.71 42.77 1.41 M 0.28 50.6 C 14.42 30.18 30.01 12.72 42.93 1.54 M 0.28 50.6 C 18.9 28.71 32.88 10.63 42.93 1.54 M 0.43 50.73 C 17.34 33.07 29.28 14.27 43.08 1.67 M 0.43 50.73 C 16.84 31.37 28.64 14.28 43.08 1.67 M -0.07 51.61 C 13.24 36.38 19.43 20.51 43.23 1.8 M -0.07 51.61 C 12.79 40.48 23.07 27.26 43.23 1.8 M 0.08 51.74 C 9.51 44.32 16.28 35.78 43.38 1.93 M 0.08 51.74 C 9.79 38.36 19.53 28.86 43.38 1.93 M 0.23 51.88 C 7.53 44.53 18.49 31.16 43.53 2.06 M 0.23 51.88 C 13.71 36.81 29.79 21.66 43.53 2.06 M 0.38 52.01 C 13.36 35.83 25.61 21.08 43.68 2.2 M 0.38 52.01 C 11.2 35.55 27.17 22.34 43.68 2.2 M -0.12 52.89 C 11.3 35.02 19.6 23.18 43.83 2.33 M -0.12 52.89 C 16.2 34.6 30.82 20.92 43.83 2.33 M 0.03 53.02 C 6.83 43.64 17.42 27.81 43.98 2.46 M 0.03 53.02 C 13.16 37.64 25.51 24.4 43.98 2.46 M 0.18 53.15 C 13.69 39.88 26.12 24.09 44.13 2.59 M 0.18 53.15 C 12.65 38.49 28.74 22.94 44.13 2.59 M 0.33 53.29 C 13.03 45.46 23.91 31.78 44.28 2.72 M 0.33 53.29 C 10.37 41.57 21.93 30.89 44.28 2.72 M -0.18 54.17 C 15.63 38.77 26.97 27.02 44.44 2.85 M -0.18 54.17 C 15.45 32.92 34.45 16.16 44.44 2.85 M -0.03 54.3 C 12.97 36.81 28.13 19.33 44.59 2.98 M -0.03 54.3 C 16.85 39.32 31.65 22.51 44.59 2.98 M 0.13 54.43 C 10.8 38.37 25.24 21.27 44.74 3.11 M 0.13 54.43 C 16.68 36.76 35.38 16.62 44.74 3.11 M 0.28 54.57 C 9.19 39.67 25.82 22.02 44.89 3.25 M 0.28 54.57 C 10.13 42.87 21.14 28.23 44.89 3.25 M 0.43 54.7 C 22.4 34.39 34.5 13.31 45.04 3.38 M 0.43 54.7 C 14.79 37.04 29.32 19.59 45.04 3.38 M -0.08 55.58 C 13.43 34.64 34.15 14.18 45.19 3.51 M -0.08 55.58 C 12.84 44.66 24.27 30.9 45.19 3.51 M 0.07 55.71 C 19.01 38.17 34.24 21.77 46 2.88 M 0.07 55.71 C 14.18 39.71 27.7 22.72 46 2.88 M 0.22 55.85 C 14.07 36.35 29.25 17.06 46.15 3.02 M 0.22 55.85 C 11.97 44.04 19.85 30.32 46.15 3.02 M 0.37 55.98 C 15.48 34.75 32.1 14.47 46.3 3.15 M 0.37 55.98 C 16.72 38.33 32.75 18.67 46.3 3.15 M -0.13 56.86 C 19.46 34.82 34.17 22.15 46.45 3.28 M -0.13 56.86 C 11.57 42.22 24.08 26.28 46.45 3.28 M 0.02 56.99 C 15.7 33.16 37.53 12.68 46.6 3.41 M 0.02 56.99 C 8.79 45.13 17.78 33.87 46.6 3.41 M 0.17 57.12 C 13.59 43.84 22.95 31.26 46.75 3.54 M 0.17 57.12 C 15.11 38.64 30.18 20.45 46.75 3.54 M 0.32 57.26 C 12.59 47.46 20.96 30.79 46.9 3.67 M 0.32 57.26 C 17.79 39.77 31.55 22.94 46.9 3.67 M -0.18 58.14 C 9.26 45.3 26.25 32.07 47.05 3.8 M -0.18 58.14 C 16.39 35.14 37.24 17.14 47.05 3.8 M -0.03 58.27 C 10.24 46.64 20.92 34.06 47.2 3.93 M -0.03 58.27 C 16.92 41.51 30.63 24.04 47.2 3.93 M 0.12 58.4 C 19.65 41.06 35.2 16.74 47.36 4.07 M 0.12 58.4 C 19.17 37.48 36.42 18.43 47.36 4.07 M 0.27 58.54 C 14.51 49.73 22.21 33.38 47.51 4.2 M 0.27 58.54 C 15.65 39.67 29.31 24.46 47.51 4.2 M 0.42 58.67 C 19.86 37.47 33.04 19.07 47.66 4.33 M 0.42 58.67 C 14.15 41.05 29.58 28.04 47.66 4.33 M -0.08 59.55 C 9.59 41.21 20.75 33.2 47.81 4.46 M -0.08 59.55 C 16.74 41.92 30.38 27.02 47.81 4.46 M 0.07 59.68 C 15.37 40.99 30.33 24.22 47.96 4.59 M 0.07 59.68 C 8.49 47.44 21.97 36.77 47.96 4.59 M 0.22 59.81 C 19.01 39.8 39.13 14.18 48.11 4.72 M 0.22 59.81 C 16.71 44.55 27.88 26.37 48.11 4.72 M 0.37 59.95 C 17.89 37.07 35.87 20.91 48.26 4.85 M 0.37 59.95 C 16.63 39.18 34.3 22.73 48.26 4.85 M -0.14 60.83 C 14.68 43.56 27.05 32.19 48.41 4.98 M -0.14 60.83 C 16.55 41.3 28.95 24.93 48.41 4.98 M 0.01 60.96 C 17.36 47.09 28.58 27.81 48.56 5.11 M 0.01 60.96 C 18.66 44.27 31.95 26.43 48.56 5.11 M 0.17 61.09 C 14.82 37.97 31.56 25.61 48.71 5.25 M 0.17 61.09 C 10.52 47.5 21.79 37.16 48.71 5.25 M 0.32 61.23 C 17.32 42.99 28.02 32.75 49.52 4.62 M 0.32 61.23 C 14.09 44.48 29.31 29.71 49.52 4.62 M -0.19 62.11 C 13.67 43.24 27.52 29.19 49.67 4.75 M -0.19 62.11 C 13.91 47.54 27.86 30.29 49.67 4.75 M -0.04 62.24 C 15.17 39.81 40.66 18.13 49.82 4.88 M -0.04 62.24 C 16.92 42 34.69 23.15 49.82 4.88 M 0.11 62.37 C 11.43 44.24 27.06 32.16 49.97 5.02 M 0.11 62.37 C 18.85 43.04 35.12 22.87 49.97 5.02 M 0.26 62.51 C 9.53 47.95 22.37 33.03 50.12 5.15 M 0.26 62.51 C 17.42 43.57 33.71 22.16 50.12 5.15 M 0.42 62.64 C 20.71 38.59 37.52 21.23 50.28 5.28 M 0.42 62.64 C 11.23 49.79 24.04 37.3 50.28 5.28 M -0.09 63.52 C 14.11 47.73 35 22.61 50.43 5.41 M -0.09 63.52 C 17.12 42.28 34.91 20.63 50.43 5.41 M 0.06 63.65 C 21.67 41.33 43.11 18.07 50.58 5.54 M 0.06 63.65 C 20.24 40.44 40.38 17.47 50.58 5.54 M 0.21 63.78 C 21.07 44.21 38.53 19.69 50.73 5.67 M 0.21 63.78 C 12.52 49.25 27.96 32.27 50.73 5.67 M 0.36 63.92 C 19.69 46.97 35.8 23.66 50.88 5.8 M 0.36 63.92 C 10.92 50.41 21.13 38.87 50.88 5.8 M -0.14 64.8 C 18.22 40.62 33.71 23.56 51.03 5.93 M -0.14 64.8 C 15.62 45.8 32.18 29.03 51.03 5.93 M 0.01 64.93 C 14.18 48.05 23.96 38.29 51.18 6.07 M 0.01 64.93 C 13.83 48.5 28.01 30.53 51.18 6.07 M 0.16 65.06 C 21.68 45.56 35.3 20.36 51.33 6.2 M 0.16 65.06 C 14.56 48.49 29.06 31.07 51.33 6.2 M 0.31 65.2 C 16.92 41.57 35.22 26.2 51.48 6.33 M 0.31 65.2 C 10.62 52.7 22.76 40.57 51.48 6.33 M 0.46 65.33 C 8 47.79 25.32 35.52 51.63 6.46 M 0.46 65.33 C 16.02 49.75 28.47 34.82 51.63 6.46 M 0.61 65.46 C 16.15 43.38 41.03 23.41 51.78 6.59 M 0.61 65.46 C 18.8 44.48 38.23 19.68 51.78 6.59 M 0.76 65.59 C 17.28 39.32 40.11 14.91 51.94 6.72 M 0.76 65.59 C 13.69 47.3 30.2 30.86 51.94 6.72 M 0.26 66.48 C 18.65 44.1 41.31 19.45 52.09 6.85 M 0.26 66.48 C 17.25 49.18 33.76 28.08 52.09 6.85 M 0.41 66.61 C 19.99 45.03 30.01 32.35 52.24 6.98 M 0.41 66.61 C 13.05 53.24 22.9 40.56 52.24 6.98 M 0.56 66.74 C 15.46 42.92 38.71 27.48 52.39 7.12 M 0.56 66.74 C 9.3 54.5 19.39 44.66 52.39 7.12 M 0.71 66.87 C 12.04 55.83 27.49 41.44 53.2 6.49 M 0.71 66.87 C 20.46 41.87 43.62 16.63 53.2 6.49 M 0.86 67 C 15.37 52.33 27.94 35.21 53.35 6.62 M 0.86 67 C 20.36 41.88 44.72 19.41 53.35 6.62 M 1.01 67.13 C 16.97 49.7 29.44 30.59 53.5 6.75 M 1.01 67.13 C 18.8 45.66 35.32 26.72 53.5 6.75 M 1.16 67.26 C 13.97 51.22 29.62 36.01 53.65 6.89 M 1.16 67.26 C 21.79 43.85 40.71 25.05 53.65 6.89 M 1.31 67.39 C 15.61 52.91 25.54 44.62 53.8 7.02 M 1.31 67.39 C 22.76 43.51 42.14 21 53.8 7.02 M 1.47 67.52 C 17.38 55.94 28.07 38.35 53.95 7.15 M 1.47 67.52 C 17.35 49.38 30.94 32.73 53.95 7.15 M 1.62 67.66 C 20.6 46.51 39.33 19.44 54.1 7.28 M 1.62 67.66 C 18.77 46.84 35.43 31.25 54.1 7.28 M 1.11 68.54 C 12.38 57.92 20.13 40.16 54.25 7.41 M 1.11 68.54 C 14.73 52.71 28.86 33.57 54.25 7.41 M 1.26 68.67 C 16.21 43.81 40.41 27.56 54.4 7.54 M 1.26 68.67 C 14.73 49.3 32.43 31.75 54.4 7.54 M 1.41 68.8 C 11.85 50.71 25.87 36.18 54.55 7.67 M 1.41 68.8 C 19.68 45.75 39.39 27.62 54.55 7.67 M 1.56 68.94 C 15.01 53.74 25.65 46.16 54.71 7.8 M 1.56 68.94 C 24.96 44.81 44.84 22.5 54.71 7.8 M 1.72 69.07 C 17.79 52.15 33.76 35.46 54.86 7.94 M 1.72 69.07 C 15.05 50.95 28.29 35.88 54.86 7.94 M 1.87 69.2 C 23.72 45.14 40.31 27.27 55.01 8.07 M 1.87 69.2 C 11.53 55.18 22.58 43.78 55.01 8.07 M 2.02 69.33 C 14.09 51.41 35.53 36.81 55.16 8.2 M 2.02 69.33 C 16.54 52.76 31.73 35.66 55.16 8.2 M 2.17 69.46 C 16.07 54.64 30.13 40.31 55.31 8.33 M 2.17 69.46 C 11.82 54.82 24.39 44.52 55.31 8.33 M 2.32 69.59 C 23.62 43.72 38 27.19 55.46 8.46 M 2.32 69.59 C 15.14 54.82 25.73 42.71 55.46 8.46 M 1.81 70.48 C 13.18 53.61 31.07 40.73 55.61 8.59 M 1.81 70.48 C 18.15 53.17 31.37 37.79 55.61 8.59 M 1.96 70.61 C 25.9 47.29 37.1 27 55.76 8.72 M 1.96 70.61 C 10.13 58.27 21.87 44.43 55.76 8.72 M 2.12 70.74 C 15.21 53.43 31.22 37.14 55.91 8.85 M 2.12 70.74 C 18.86 53.99 35.29 32.23 55.91 8.85 M 2.27 70.87 C 14.28 52.88 34.16 35.89 56.72 8.23 M 2.27 70.87 C 15.12 54.83 27.65 41.84 56.72 8.23 M 2.42 71 C 15.92 55.98 29.04 36.39 56.87 8.36 M 2.42 71 C 15.51 54.21 24.9 41.69 56.87 8.36 M 2.57 71.13 C 23.19 48.23 40.14 32.02 57.02 8.49 M 2.57 71.13 C 19.78 54.13 32.47 36.69 57.02 8.49 M 2.72 71.26 C 15.27 54.22 31.39 41.25 57.17 8.62 M 2.72 71.26 C 24.49 48.27 43.98 21.93 57.17 8.62 M 2.87 71.4 C 19.2 52.42 35.46 40.22 57.32 8.76 M 2.87 71.4 C 15.56 57.04 29.43 40.64 57.32 8.76 M 3.02 71.53 C 17.24 62.14 25.78 43.42 57.47 8.89 M 3.02 71.53 C 22.41 49.04 40.78 25.19 57.47 8.89 M 3.17 71.66 C 20.91 52.48 42.56 26.16 57.63 9.02 M 3.17 71.66 C 19.55 53.49 36.71 32.38 57.63 9.02 M 3.32 71.79 C 12.96 58.03 29.69 43.03 57.78 9.15 M 3.32 71.79 C 19.51 52.66 36.84 34.28 57.78 9.15 M 3.47 71.92 C 22.89 53.52 40.7 29.42 57.93 9.28 M 3.47 71.92 C 16 59.05 27.59 44.19 57.93 9.28 M 3.63 72.05 C 23.96 48.38 43.08 28.96 58.08 9.41 M 3.63 72.05 C 17.78 53.21 33.76 39.03 58.08 9.41 M 3.78 72.18 C 26.16 49.56 42.87 23.69 58.23 9.54 M 3.78 72.18 C 24.2 48.43 47.69 20.25 58.23 9.54 M 3.93 72.31 C 15.68 55.22 30.85 42.82 57.72 10.43 M 3.93 72.31 C 19.2 55.03 32.13 40.45 57.72 10.43 M 4.08 72.45 C 21.33 49.87 35.28 33.43 57.87 10.56 M 4.08 72.45 C 18.25 56.44 28.61 42.6 57.87 10.56 M 4.23 72.58 C 24.63 47.73 38.16 27.77 58.03 10.69 M 4.23 72.58 C 23.34 47.36 45.79 24.49 58.03 10.69 M 5.04 71.95 C 17.6 57.91 34.39 37.94 58.18 10.82 M 5.04 71.95 C 17.1 60.61 26.18 47.31 58.18 10.82 M 5.19 72.08 C 21.59 51.94 38.2 34.05 58.33 10.95 M 5.19 72.08 C 16.96 56.73 28.8 44.57 58.33 10.95 M 5.34 72.22 C 24.61 51.71 43.54 22.16 58.48 11.08 M 5.34 72.22 C 25.08 50.81 45.36 27.04 58.48 11.08 M 5.49 72.35 C 24.03 47.08 49.28 23.89 58.63 11.22 M 5.49 72.35 C 27.43 51.02 46.55 25.95 58.63 11.22 M 5.64 72.48 C 20.04 54.36 34.11 35.12 58.78 11.35 M 5.64 72.48 C 26.9 48.62 46.59 25.28 58.78 11.35 M 5.79 72.61 C 25.77 46.84 46.93 23.35 58.93 11.48 M 5.79 72.61 C 24.46 54.05 40.04 32.56 58.93 11.48 M 5.94 72.74 C 19.82 56.75 37.27 35 59.08 11.61 M 5.94 72.74 C 24.54 50.22 42.86 30.24 59.08 11.61 M 6.09 72.87 C 23.09 54.6 43.95 36.4 58.58 12.5 M 6.09 72.87 C 27.1 47.61 45.26 26.03 58.58 12.5 M 6.24 73 C 20.7 50.61 41.08 31.81 58.73 12.63 M 6.24 73 C 20.33 55.22 33.16 40.57 58.73 12.63 M 6.39 73.13 C 24.01 51.89 36.34 32.53 58.88 12.76 M 6.39 73.13 C 27.5 50.77 43.33 29.73 58.88 12.76 M 6.55 73.27 C 26.81 49.01 39.04 34.52 59.03 12.89 M 6.55 73.27 C 16.98 59.44 25.91 49.01 59.03 12.89 M 6.7 73.4 C 28.92 48.4 43.92 26.66 59.18 13.02 M 6.7 73.4 C 18.24 59.2 28.93 48.92 59.18 13.02 M 6.85 73.53 C 28.68 51.98 47.98 25.95 59.33 13.15 M 6.85 73.53 C 28.4 50.13 48.44 27.16 59.33 13.15 M 7 73.66 C 26.05 52.88 40.34 28.85 59.48 13.28 M 7 73.66 C 26.92 54.19 44.04 30.74 59.48 13.28 M 7.15 73.79 C 23.87 47.31 49.43 26.78 59.63 13.41 M 7.15 73.79 C 26.52 53.61 48.75 28.39 59.63 13.41 M 7.3 73.92 C 25.08 52.78 41.93 36.08 59.78 13.54 M 7.3 73.92 C 18.42 61.16 34.63 43.54 59.78 13.54 M 7.45 74.05 C 23.18 61.13 33.13 46.43 59.94 13.68 M 7.45 74.05 C 18.49 62.73 27.43 47.06 59.94 13.68 M 7.6 74.18 C 23.93 59.22 29.3 45.54 59.43 14.56 M 7.6 74.18 C 25.27 55.39 37.73 38.06 59.43 14.56 M 7.75 74.32 C 19.47 61.71 37.22 46.76 59.58 14.69 M 7.75 74.32 C 24.03 57.53 40.34 35.54 59.58 14.69 M 7.9 74.45 C 20.72 59.87 32.03 46.64 59.73 14.82 M 7.9 74.45 C 21.23 61.59 33.44 50.67 59.73 14.82 M 8.05 74.58 C 20.84 55 35.99 45.25 59.88 14.96 M 8.05 74.58 C 29.18 52.51 44.66 30.96 59.88 14.96 M 8.21 74.71 C 22.26 60.04 34.52 43.46 60.03 15.09 M 8.21 74.71 C 22.96 58.99 38.55 41.68 60.03 15.09 M 8.36 74.84 C 18.58 59.78 31.98 43 60.19 15.22 M 8.36 74.84 C 19.5 61.36 29.05 48.69 60.19 15.22 M 8.51 74.97 C 25.68 58.24 43.93 33.32 60.34 15.35 M 8.51 74.97 C 19.49 64.45 30.45 49.29 60.34 15.35 M 8.66 75.1 C 24.43 52.94 39.98 37.67 59.83 16.24 M 8.66 75.1 C 19.34 63.08 30.06 52.32 59.83 16.24 M 8.81 75.23 C 23.62 55.86 36.66 44.85 59.98 16.37 M 8.81 75.23 C 24.49 55.1 41.17 33.15 59.98 16.37 M 8.96 75.36 C 24.03 58.68 42.02 35.64 60.13 16.5 M 8.96 75.36 C 20.49 62.78 33.23 49.62 60.13 16.5 M 9.11 75.5 C 28.02 51.37 40.29 35.69 60.28 16.63 M 9.11 75.5 C 19.1 62.98 32.61 47.41 60.28 16.63 M 9.26 75.63 C 17.25 60.36 25.49 49.73 59.78 17.51 M 9.26 75.63 C 19.67 61.27 32.86 47.42 59.78 17.51 M 10.07 75 C 30.35 58.33 40.64 35.66 59.93 17.65 M 10.07 75 C 24.57 56.9 38.1 41.4 59.93 17.65 M 10.22 75.14 C 20.36 60.55 34.16 46.1 60.08 17.78 M 10.22 75.14 C 20.76 64.75 32.85 51.95 60.08 17.78 M 10.37 75.27 C 25.13 54.4 48.84 37.68 60.23 17.91 M 10.37 75.27 C 23.89 55.87 38.37 41.25 60.23 17.91 M 10.52 75.4 C 22.92 57.69 38.2 36.57 60.38 18.04 M 10.52 75.4 C 29.01 55.37 48.68 32.81 60.38 18.04 M 10.67 75.53 C 26.4 57.3 36.33 40.22 59.88 18.93 M 10.67 75.53 C 26.75 58.19 40.97 42.82 59.88 18.93 M 10.82 75.66 C 22.23 60.59 44.57 38.09 60.03 19.06 M 10.82 75.66 C 25.86 58.76 39.63 44.62 60.03 19.06 M 10.98 75.79 C 27.76 58.37 39.48 39.39 60.18 19.19 M 10.98 75.79 C 28.33 57.92 42.85 41.45 60.18 19.19 M 11.13 75.92 C 31.63 56.71 44.35 36.37 60.33 19.32 M 11.13 75.92 C 23.08 63.25 30.06 52.39 60.33 19.32 M 11.28 76.05 C 26.28 52.32 47.8 39.14 59.83 20.21 M 11.28 76.05 C 22.01 63.27 35.65 47.62 59.83 20.21 M 11.43 76.18 C 20.25 63.4 33.34 48.97 59.98 20.34 M 11.43 76.18 C 29.77 57.01 46.75 36.69 59.98 20.34 M 11.58 76.32 C 28.53 61.5 37.78 45.98 60.13 20.47 M 11.58 76.32 C 27.86 57.09 49.07 35.81 60.13 20.47 M 11.73 76.45 C 23.08 65.52 36.68 52.74 60.28 20.6 M 11.73 76.45 C 27.16 59.74 38.22 44.82 60.28 20.6 M 11.88 76.58 C 31.02 54.82 52.62 36.52 59.77 21.48 M 11.88 76.58 C 20.76 65.91 31.05 54.61 59.77 21.48 M 12.03 76.71 C 29.32 60.95 41.03 42.51 59.92 21.62 M 12.03 76.71 C 23.03 63.51 32.13 50.68 59.92 21.62 M 12.18 76.84 C 22.85 61.28 34.77 50.92 60.07 21.75 M 12.18 76.84 C 26.67 61.57 40.81 42.15 60.07 21.75 M 12.33 76.97 C 26.37 59.52 47.07 39.52 60.23 21.88 M 12.33 76.97 C 30.34 56.58 44.01 38.18 60.23 21.88 M 12.48 77.1 C 24.98 66.3 30.6 55.15 60.38 22.01 M 12.48 77.1 C 33.06 57.01 50.95 35.5 60.38 22.01 M 12.64 77.23 C 23.58 57.53 40.49 41.75 59.87 22.9 M 12.64 77.23 C 28.67 56.33 46.31 37.58 59.87 22.9 M 12.79 77.37 C 33.07 56.16 42.53 38.08 60.02 23.03 M 12.79 77.37 C 27.64 61.26 41.48 48.53 60.02 23.03 M 12.94 77.5 C 24.79 61.38 41.18 47.76 60.17 23.16 M 12.94 77.5 C 28.17 61.79 40.51 47.89 60.17 23.16 M 13.09 77.63 C 24.25 62.02 38.13 51.63 60.32 23.29 M 13.09 77.63 C 29.78 57.57 44.31 40.47 60.32 23.29 M 13.24 77.76 C 34.48 57.13 50.06 39.41 59.82 24.17 M 13.24 77.76 C 23.96 64.68 35.82 53.31 59.82 24.17 M 13.39 77.89 C 35.03 57.12 50.08 39.01 59.97 24.31 M 13.39 77.89 C 26.43 63.84 35.18 50.66 59.97 24.31 M 14.2 77.27 C 31.84 55.04 45.93 38.05 60.12 24.44 M 14.2 77.27 C 27.18 63.57 40.31 50.54 60.12 24.44 M 14.35 77.4 C 27.68 61.54 32.42 48.69 60.27 24.57 M 14.35 77.4 C 31.54 55.41 50.05 36.8 60.27 24.57 M 14.5 77.53 C 28.68 60.68 48.03 41.53 59.77 25.45 M 14.5 77.53 C 33.29 56.42 52.37 38.26 59.77 25.45 M 14.65 77.66 C 29.59 60.43 43.32 40.81 59.92 25.59 M 14.65 77.66 C 26.7 63.58 36.89 50.99 59.92 25.59 M 14.8 77.79 C 24.38 62.92 42.31 46.47 60.07 25.72 M 14.8 77.79 C 29.59 62.85 40.12 44.77 60.07 25.72 M 14.95 77.92 C 25.4 65.98 38.24 52.48 60.22 25.85 M 14.95 77.92 C 32.22 60.18 47.58 41.58 60.22 25.85 M 15.1 78.05 C 27.37 67.01 38.73 48.03 60.37 25.98 M 15.1 78.05 C 26.53 66.79 36.01 57.96 60.37 25.98 M 15.25 78.19 C 31.43 66.52 40.93 47.43 59.87 26.87 M 15.25 78.19 C 32.52 58.75 47.98 38.24 59.87 26.87 M 16.06 77.56 C 22.39 63.03 34.66 57.59 60.02 27 M 16.06 77.56 C 29.54 62.31 41.75 50.19 60.02 27 M 16.21 77.69 C 31.57 59.92 41.82 50.97 60.17 27.13 M 16.21 77.69 C 29.25 64.62 42.06 51.82 60.17 27.13 M 16.36 77.82 C 24.21 66.02 32.62 54.73 60.32 27.26 M 16.36 77.82 C 30.88 60.5 48.27 38.16 60.32 27.26 M 16.51 77.96 C 33.07 65 40.45 50.76 59.81 28.14 M 16.51 77.96 C 33.38 57.97 51.45 41.04 59.81 28.14 M 16.66 78.09 C 30.03 55.03 53.6 43.03 59.96 28.28 M 16.66 78.09 C 28.68 62.33 42.05 51.46 59.96 28.28 M 16.82 78.22 C 36.52 56.61 47.43 43.86 60.12 28.41 M 16.82 78.22 C 27.33 66.15 41.25 48.79 60.12 28.41 M 16.97 78.35 C 31.16 64.95 44.7 49.47 60.27 28.54 M 16.97 78.35 C 30.43 60 44.65 45.59 60.27 28.54 M 17.77 77.73 C 37.5 61.11 51.66 41.51 59.76 29.42 M 17.77 77.73 C 33.64 58.54 49.59 41.86 59.76 29.42 M 17.92 77.86 C 31.27 63.85 44.42 45.93 59.91 29.56 M 17.92 77.86 C 32.64 62.17 46.72 43.74 59.91 29.56 M 18.08 77.99 C 26.63 60.59 40.49 54.07 60.06 29.69 M 18.08 77.99 C 28.27 65.7 42.08 50.97 60.06 29.69 M 18.23 78.12 C 33.76 60.49 56.06 42.12 60.21 29.82 M 18.23 78.12 C 29.09 64.24 41.12 53.85 60.21 29.82 M 18.38 78.25 C 32.42 59.01 47.36 39.83 60.36 29.95 M 18.38 78.25 C 29.48 65.4 41.8 51.1 60.36 29.95 M 18.53 78.38 C 29.85 64.63 41.96 56.11 59.86 30.84 M 18.53 78.38 C 27.4 69.47 36.2 57.58 59.86 30.84 M 18.68 78.51 C 26.42 63.06 40.83 51.88 60.01 30.97 M 18.68 78.51 C 31 62.71 45.92 46.99 60.01 30.97 M 18.83 78.64 C 34.45 66.56 43.71 49.53 60.16 31.1 M 18.83 78.64 C 30.66 61.42 47.62 48.09 60.16 31.1 M 19.64 78.02 C 27.39 62.42 39.53 54.77 60.31 31.23 M 19.64 78.02 C 30.93 65.99 42.71 54.24 60.31 31.23 M 19.79 78.15 C 28.57 68.58 40.01 54.01 59.81 32.11 M 19.79 78.15 C 36.14 58.67 50.45 39.5 59.81 32.11 M 19.94 78.28 C 31.85 62.54 47.88 47.86 59.96 32.25 M 19.94 78.28 C 32.55 64.16 45.15 49.7 59.96 32.25 M 20.09 78.41 C 37.02 58.66 52.25 43.94 60.11 32.38 M 20.09 78.41 C 26.59 68.24 38.25 56.3 60.11 32.38 M 20.24 78.55 C 33.24 71.02 36.84 55.34 60.26 32.51 M 20.24 78.55 C 34.75 61.77 48.35 45.59 60.26 32.51 M 20.39 78.68 C 28.85 70.95 41.78 56.95 59.76 33.39 M 20.39 78.68 C 37.71 60.36 50.66 44.97 59.76 33.39 M 20.54 78.81 C 31.11 66.29 40.05 52.62 59.91 33.53 M 20.54 78.81 C 29.38 66.71 38.9 56.09 59.91 33.53 M 20.69 78.94 C 27.07 66.13 37.95 54.1 60.06 33.66 M 20.69 78.94 C 33.58 62.09 51.76 47.07 60.06 33.66 M 21.5 78.32 C 36.5 58.51 48.16 40.05 60.21 33.79 M 21.5 78.32 C 33.61 66.83 43.99 52.27 60.21 33.79 M 21.65 78.45 C 36.39 59.08 48.1 40.69 60.36 33.92 M 21.65 78.45 C 36.38 62.01 53.56 43.67 60.36 33.92 M 21.8 78.58 C 33.42 66.45 50.21 49.57 59.85 34.81 M 21.8 78.58 C 33.12 64.75 46.17 52.61 59.85 34.81 M 21.95 78.71 C 34.42 66.83 42.72 52.01 60 34.94 M 21.95 78.71 C 36.49 61.02 52.02 45.96 60 34.94 M 22.1 78.84 C 32.64 65.46 54.56 42.08 60.16 35.07 M 22.1 78.84 C 35.67 61.96 45.11 50.04 60.16 35.07 M 22.26 78.97 C 35.73 59.48 49.32 43.55 60.31 35.2 M 22.26 78.97 C 37.81 62.6 51.34 44.25 60.31 35.2 M 22.41 79.1 C 32.78 68.43 43.02 58.33 59.8 36.08 M 22.41 79.1 C 37.12 64.6 50.71 48.01 59.8 36.08 M 22.56 79.23 C 33.87 60.42 56.03 46.98 59.95 36.22 M 22.56 79.23 C 37.15 63.08 50.86 48.09 59.95 36.22 M 23.36 78.61 C 33.62 66.33 38.85 56.68 60.1 36.35 M 23.36 78.61 C 36.45 63.96 47.98 51.99 60.1 36.35 M 23.52 78.74 C 32.16 69.79 42.47 63.55 60.25 36.48 M 23.52 78.74 C 34.95 67.72 45.48 56.26 60.25 36.48 M 23.67 78.87 C 34.06 63.8 50.21 50.09 59.75 37.36 M 23.67 78.87 C 31.58 68.26 39.05 61.04 59.75 37.36 M 23.82 79 C 37.17 64.63 50.21 49.32 59.9 37.5 M 23.82 79 C 33.41 65.36 45.51 55.81 59.9 37.5 M 23.97 79.14 C 40.76 61.03 46.91 53.43 60.05 37.63 M 23.97 79.14 C 31.51 67.64 39.81 61.29 60.05 37.63 M 24.12 79.27 C 32.33 71.38 42.91 54.91 60.2 37.76 M 24.12 79.27 C 36.88 65.65 51.19 52.28 60.2 37.76 M 24.27 79.4 C 31.83 67.01 42.49 57.54 60.35 37.89 M 24.27 79.4 C 33.02 72.26 37.17 60.72 60.35 37.89 M 24.42 79.53 C 33.65 69.18 49.69 53.27 59.85 38.77 M 24.42 79.53 C 33.73 65.04 45.53 51.8 59.85 38.77 M 25.23 78.91 C 32.92 69.74 41.79 62.73 60 38.91 M 25.23 78.91 C 36.38 64.8 51.29 48.87 60 38.91 M 25.38 79.04 C 33.08 65.47 43.54 56.67 60.15 39.04 M 25.38 79.04 C 32.48 70.45 38.85 63 60.15 39.04 M 25.53 79.17 C 42.44 62.63 49.17 49.32 60.3 39.17 M 25.53 79.17 C 33.5 66.83 44.67 58.39 60.3 39.17 M 25.68 79.3 C 31.6 72.72 42.47 61.27 59.8 40.05 M 25.68 79.3 C 36.78 70.01 45.44 57.29 59.8 40.05 M 25.83 79.43 C 35.43 71.02 40.42 61.3 59.95 40.19 M 25.83 79.43 C 36.68 68.26 45.81 60.51 59.95 40.19 M 25.98 79.56 C 37.85 65.81 45.15 52.49 60.1 40.32 M 25.98 79.56 C 32.15 72.18 40.09 63.24 60.1 40.32 M 26.13 79.69 C 38.36 71.98 47.78 60.51 60.25 40.45 M 26.13 79.69 C 38.26 64.27 52.77 48.05 60.25 40.45 M 26.28 79.82 C 40.54 66.67 51.89 50.16 59.74 41.33 M 26.28 79.82 C 36.36 65.86 48.17 51.92 59.74 41.33 M 27.09 79.2 C 36.53 69.27 50.16 59.21 59.89 41.47 M 27.09 79.2 C 37.07 67.35 46.37 56.96 59.89 41.47 M 27.24 79.33 C 40.06 64.14 56.29 51.19 60.05 41.6 M 27.24 79.33 C 38.96 68.7 46.27 55.09 60.05 41.6 M 27.39 79.46 C 38.22 71 43.32 63.27 60.2 41.73 M 27.39 79.46 C 36.78 68.54 44.97 61.64 60.2 41.73 M 27.54 79.59 C 35.97 65.69 48.26 57.81 60.35 41.86 M 27.54 79.59 C 38.66 66.55 51.82 54.36 60.35 41.86 M 27.7 79.73 C 39.01 65.15 47.73 59.58 59.84 42.74 M 27.7 79.73 C 38.27 67.84 46.34 56.43 59.84 42.74 M 27.85 79.86 C 36.26 67.82 44.8 57.63 59.99 42.88 M 27.85 79.86 C 38.99 64.83 51.12 52.33 59.99 42.88 M 28 79.99 C 35.25 67.48 50.15 51.51 60.14 43.01 M 28 79.99 C 41.15 67.13 52.2 53.02 60.14 43.01 M 28.15 80.12 C 32.2 68.97 46.89 65.15 60.29 43.14 M 28.15 80.12 C 39.58 66.22 53.47 53.28 60.29 43.14 M 28.95 79.5 C 38.32 72.57 43.72 61.39 59.79 44.02 M 28.95 79.5 C 39.56 64.74 52.56 53.81 59.79 44.02 M 29.11 79.63 C 42.67 67.14 51.9 51.8 59.94 44.16 M 29.11 79.63 C 37.92 67.33 52.38 53.61 59.94 44.16 M 29.26 79.76 C 37.21 74.3 46.89 61.35 60.09 44.29 M 29.26 79.76 C 37.62 69.98 47.91 59.34 60.09 44.29 M 29.41 79.89 C 41.95 67.45 47.87 59.32 60.24 44.42 M 29.41 79.89 C 40.29 66.91 53.59 51.56 60.24 44.42 M 29.56 80.02 C 35.51 67.23 46.67 55.79 59.74 45.3 M 29.56 80.02 C 36.43 71.67 42.88 65.74 59.74 45.3 M 29.71 80.15 C 41.48 68.35 44.12 64.85 59.89 45.44 M 29.71 80.15 C 40.18 68.91 45.85 60.34 59.89 45.44 M 29.86 80.28 C 39.26 67.75 51.39 52.23 60.04 45.57 M 29.86 80.28 C 43.29 65.49 51.74 52.3 60.04 45.57 M 30.67 79.66 C 43.38 66.92 46.17 62.45 60.19 45.7 M 30.67 79.66 C 39.77 66.73 53.43 57.23 60.19 45.7 M 30.82 79.79 C 42.26 71.25 56.26 53.59 60.34 45.83 M 30.82 79.79 C 36.29 74.55 45.47 63.44 60.34 45.83 M 30.97 79.92 C 34.22 70.3 44.63 65.25 59.84 46.71 M 30.97 79.92 C 38.32 71.66 47.04 63.16 59.84 46.71 M 31.12 80.05 C 42.9 70.44 47.61 57.82 59.99 46.85 M 31.12 80.05 C 39.19 68.35 51.9 57.25 59.99 46.85 M 31.27 80.18 C 38 69.15 50.13 52.52 60.14 46.98 M 31.27 80.18 C 40.92 68.67 54.73 53.98 60.14 46.98 M 32.08 79.56 C 37.84 67.47 49.55 56.23 60.29 47.11 M 32.08 79.56 C 38.98 75.33 45.08 65 60.29 47.11 M 32.23 79.69 C 42.8 67.57 50.15 55.75 59.78 47.99 M 32.23 79.69 C 43.76 68.69 53.04 57.21 59.78 47.99 M 32.38 79.82 C 38.93 65.79 55.22 56 59.93 48.13 M 32.38 79.82 C 41.34 73.14 49.31 63.15 59.93 48.13 M 32.53 79.95 C 38.97 70.94 52.58 55.39 60.09 48.26 M 32.53 79.95 C 38.51 72.23 47.07 63.23 60.09 48.26 M 33.34 79.33 C 40.15 65.08 49.9 58.72 60.24 48.39 M 33.34 79.33 C 41.47 72.02 50.23 60.28 60.24 48.39 M 33.49 79.46 C 37.85 69.44 49.27 61.91 60.39 48.52 M 33.49 79.46 C 46.24 65.3 56.37 53.77 60.39 48.52 M 33.64 79.59 C 47.06 68.95 53.99 53.92 59.88 49.41 M 33.64 79.59 C 43.61 69.49 48.38 60.61 59.88 49.41 M 33.79 79.72 C 39.75 71.99 50.58 58.71 60.03 49.54 M 33.79 79.72 C 38.14 73.62 45.6 66.79 60.03 49.54 M 34.6 79.1 C 44.85 68.26 48.41 62.53 60.18 49.67 M 34.6 79.1 C 42.37 67.3 51.8 56.2 60.18 49.67 M 34.75 79.23 C 42.24 71.39 50.11 60.64 60.34 49.8 M 34.75 79.23 C 41.49 67.83 51.41 60.7 60.34 49.8 M 34.9 79.36 C 40.29 69.02 45.34 60.91 59.83 50.68 M 34.9 79.36 C 41.33 69.39 52.22 62.47 59.83 50.68 M 35.05 79.49 C 44.21 70.24 55.12 61.5 59.98 50.82 M 35.05 79.49 C 41.68 72.53 46.19 66.6 59.98 50.82 M 35.86 78.87 C 45.45 70.41 53.95 60.7 60.13 50.95 M 35.86 78.87 C 42.81 71.68 46.69 68.15 60.13 50.95 M 36.01 79 C 41.46 70.22 46.12 64.84 60.28 51.08 M 36.01 79 C 43.75 71.42 51.64 61.38 60.28 51.08 M 36.16 79.13 C 41.43 67.67 51.9 61.66 59.78 51.96 M 36.16 79.13 C 44.66 71.94 51.09 63.71 59.78 51.96 M 36.31 79.26 C 45.65 66.72 52.08 56.19 59.93 52.1 M 36.31 79.26 C 43.92 70.3 53.52 61.78 59.93 52.1 M 36.46 79.4 C 38.49 76.4 48.55 65.62 60.08 52.23 M 36.46 79.4 C 44.45 69.9 49.96 61.98 60.08 52.23 M 37.27 78.77 C 46.76 67.33 49.5 58.9 60.23 52.36 M 37.27 78.77 C 46.98 70.85 52.24 61.13 60.23 52.36 M 37.42 78.9 C 41.85 69 51.34 66.97 60.38 52.49 M 37.42 78.9 C 43.68 68.55 54.66 59.5 60.38 52.49 M 37.57 79.04 C 46.06 66.94 53.12 54.45 59.88 53.37 M 37.57 79.04 C 45.86 70.57 56.4 60.78 59.88 53.37 M 37.72 79.17 C 45.32 72.98 54.27 62.14 60.03 53.51 M 37.72 79.17 C 44.1 70.96 51.21 62.95 60.03 53.51 M 38.53 78.54 C 47.04 74.82 54.75 65.77 60.18 53.64 M 38.53 78.54 C 44.84 71.89 50.32 62.92 60.18 53.64 M 38.68 78.67 C 40.47 74.93 47.13 65.56 60.33 53.77 M 38.68 78.67 C 42.06 75.28 47.22 66.4 60.33 53.77 M 38.83 78.81 C 44.23 70.79 55.28 58.25 59.82 54.65 M 38.83 78.81 C 43.79 74.4 46.69 69.69 59.82 54.65 M 38.98 78.94 C 44.62 69.63 49.51 61.33 59.98 54.79 M 38.98 78.94 C 45.4 72.67 51.98 66.67 59.98 54.79 M 39.79 78.31 C 43.15 69.88 50.05 58.87 60.13 54.92 M 39.79 78.31 C 49.02 67.9 57.12 60 60.13 54.92 M 39.94 78.44 C 46.18 69.04 57.37 63.69 60.28 55.05 M 39.94 78.44 C 48.55 68.01 55.43 60.84 60.28 55.05 M 40.09 78.58 C 41.58 73.77 51.79 71.4 59.77 55.93 M 40.09 78.58 C 47.6 71.05 53.72 64.59 59.77 55.93 M 40.24 78.71 C 50.36 69.84 54.57 59.45 59.92 56.07 M 40.24 78.71 C 45.9 71.21 54.15 64.87 59.92 56.07 M 41.05 78.08 C 41.03 71.83 45.34 70.21 60.07 56.2 M 41.05 78.08 C 45.55 74.8 48.72 67.08 60.07 56.2 M 41.2 78.21 C 45.03 76.87 46.27 69.72 60.22 56.33 M 41.2 78.21 C 44.12 71.24 47.62 69.82 60.22 56.33 M 41.35 78.35 C 49.67 74.6 54.71 66.9 60.38 56.46 M 41.35 78.35 C 45.02 75.17 50.63 68.27 60.38 56.46 M 41.5 78.48 C 45.51 75.99 47.29 72.88 59.87 57.34 M 41.5 78.48 C 49.76 70.47 53.15 62.26 59.87 57.34 M 41.65 78.61 C 51.85 71.67 52.7 64.6 60.02 57.48 M 41.65 78.61 C 47.45 73.02 55.23 66.11 60.02 57.48 M 42.46 77.98 C 49.35 72.16 49.44 65.06 60.17 57.61 M 42.46 77.98 C 45.8 71.12 51.68 66.98 60.17 57.61 M 42.61 78.12 C 43.01 70.88 52.01 70.55 60.32 57.74 M 42.61 78.12 C 48.05 70.47 53.39 63.23 60.32 57.74 M 42.76 78.25 C 49.83 76.97 54.85 66.04 59.82 58.62 M 42.76 78.25 C 49.27 71.28 55.79 65.34 59.82 58.62 M 42.91 78.38 C 52.28 69.44 58.58 65.32 59.97 58.76 M 42.91 78.38 C 48.47 70.64 54.39 66.35 59.97 58.76 M 43.72 77.75 C 52.51 68.85 60.04 64.01 60.12 58.89 M 43.72 77.75 C 49.72 73.18 53.72 64.71 60.12 58.89 M 43.87 77.89 C 53 71.24 52.99 63.7 60.27 59.02 M 43.87 77.89 C 46.69 73.79 52.37 67.05 60.27 59.02 M 44.02 78.02 C 46.55 76.5 49.39 70.29 59.77 59.9 M 44.02 78.02 C 49.13 70.41 55.99 65.42 59.77 59.9 M 44.17 78.15 C 47.78 71.1 52.16 70.71 59.92 60.04 M 44.17 78.15 C 48.92 72 53.54 64.6 59.92 60.04 M 44.98 77.52 C 50.59 74.97 52.69 64.9 60.07 60.17 M 44.98 77.52 C 48.48 69.58 55.17 66.19 60.07 60.17 M 45.13 77.66 C 52.31 73.73 55.06 68.78 60.22 60.3 M 45.13 77.66 C 52.15 69.91 56.4 66 60.22 60.3 M 45.28 77.79 C 52.39 74.6 57.3 67.79 60.37 60.43 M 45.28 77.79 C 46.94 75.57 52.72 69.23 60.37 60.43 M 45.43 77.92 C 44.83 71.16 51.54 71.23 59.86 61.31 M 45.43 77.92 C 49.19 70.45 55.41 64.09 59.86 61.31 M 46.24 77.29 C 47.79 71.72 53.03 66.78 60.02 61.45 M 46.24 77.29 C 50.56 72.79 56.34 64.05 60.02 61.45 M 46.39 77.43 C 51.22 69.44 59.38 69.07 60.17 61.58 M 46.39 77.43 C 49.83 71.07 57.76 66.2 60.17 61.58 M 46.54 77.56 C 48.71 69.11 58.7 65.89 60.32 61.71 M 46.54 77.56 C 49.52 72.77 53.86 64.88 60.32 61.71 M 46.69 77.69 C 53.29 76.78 51.26 73.29 59.81 62.59 M 46.69 77.69 C 51.03 73.42 51.9 70.35 59.81 62.59 M 47.5 77.06 C 50.55 69.06 53.61 69.09 59.96 62.73 M 47.5 77.06 C 52.64 71.72 57.08 68.03 59.96 62.73 M 47.65 77.2 C 51.96 73.22 55.55 68.81 60.11 62.86 M 47.65 77.2 C 49.91 72.71 55.34 70.03 60.11 62.86 M 48.46 76.57 C 54.79 73.2 57.18 69.58 60.27 62.99 M 48.46 76.57 C 52.83 72.34 52.73 70.53 60.27 62.99 M 49.26 75.95 C 51.46 72.44 54.52 68.52 59.76 63.87 M 49.26 75.95 C 52.98 70.6 54.84 67.24 59.76 63.87 M 49.41 76.08 C 50.02 72 55.63 67.72 59.91 64 M 49.41 76.08 C 50.12 72.32 54.89 69.76 59.91 64 M 50.22 75.46 C 51.68 73.98 59.37 68.73 60.06 64.14 M 50.22 75.46 C 51.48 71.86 54.36 71.57 60.06 64.14 M 51.03 74.83 C 53.34 68.65 60.5 65.15 60.21 64.27 M 51.03 74.83 C 53.64 71.94 58.34 66.37 60.21 64.27 M 51.18 74.96 C 54.44 68.68 57.84 68.58 60.36 64.4 M 51.18 74.96 C 54.11 72.36 57.05 70.66 60.36 64.4 M 51.99 74.34 C 56.99 72.76 56.23 65.56 59.86 65.28 M 51.99 74.34 C 54.03 71.16 58.29 68.13 59.86 65.28 M 52.14 74.47 C 55.71 69.6 56.05 67.25 60.01 65.42 M 52.14 74.47 C 53.96 73.28 57 70.78 60.01 65.42 M 52.94 73.85 C 54.21 73.09 56.5 68.46 59.5 66.3 M 52.94 73.85 C 54.5 70.26 58.25 68.43 59.5 66.3 M 53.75 73.23 C 53.8 73.37 54.37 70.96 59.66 66.43 M 53.75 73.23 C 56.01 70.91 57.09 68.08 59.66 66.43 M 53.9 73.36 C 55.17 70.98 56.83 72.31 59.15 67.32 M 53.9 73.36 C 54.54 72.39 56.16 70.69 59.15 67.32 M 54.71 72.73 C 56.62 71.95 57.18 69.87 58.65 68.2 M 54.71 72.73 C 56.68 70.45 57.4 69.45 58.65 68.2 M 55.52 72.11 C 55.33 70.56 56.9 71.05 58.8 68.34 M 55.52 72.11 C 56.56 71.63 56.99 70.48 58.8 68.34 M 55.67 72.24 C 56.65 70.75 56.47 70.06 58.29 69.22 M 55.67 72.24 C 56.09 71.39 56.96 70.87 58.29 69.22 M 56.47 71.62 C 57.26 71.17 57.08 69.97 58.44 69.35 M 56.47 71.62 C 56.76 70.76 57.55 70.48 58.44 69.35 M 57.28 70.99 C 57.35 70.65 57.58 70.34 57.94 70.24 M 57.28 70.99 C 57.42 70.64 57.76 70.43 57.94 70.24" fill="none" stroke="#333333" stroke-width="0.1" stroke-linejoin="round" stroke-linecap="round" stroke-miterlimit="10" pointer-events="all"/><path d="M 0 15 M 0 15 C -0.12 4.11 14.81 0.86 30 0 M 0 15 C 3.87 2.49 9.49 0.81 30 0 M 30 0 C 49.39 2.02 60.71 4.3 60 15 M 30 0 C 50.54 0.29 60.63 2.93 60 15 M 60 15 C 60.57 37.17 62.19 53.97 60 65 M 60 15 C 59.71 26.98 60.9 42.48 60 65 M 60 65 C 59.54 75.68 43.63 82.55 30 80 M 60 65 C 58.5 70.35 47.7 82.43 30 80 M 30 80 C 11.2 80.36 1.99 72.36 0 65 M 30 80 C 17.32 82.82 -1.98 75.84 0 65 M 0 65 C -2.8 44.29 1.89 25.88 0 15 M 0 65 C -1.81 45.65 1.03 28.74 0 15" fill="none" stroke="#000000" stroke-width="0.1" stroke-linejoin="round" stroke-linecap="round" stroke-miterlimit="10" pointer-events="all" transform="translate(2,3)" opacity="0.25"/><path d="M 0 15 M 0 15 C -0.12 4.11 14.81 0.86 30 0 M 0 15 C 3.87 2.49 9.49 0.81 30 0 M 30 0 C 49.39 2.02 60.71 4.3 60 15 M 30 0 C 50.54 0.29 60.63 2.93 60 15 M 60 15 C 60.57 37.17 62.19 53.97 60 65 M 60 15 C 59.71 26.98 60.9 42.48 60 65 M 60 65 C 59.54 75.68 43.63 82.55 30 80 M 60 65 C 58.5 70.35 47.7 82.43 30 80 M 30 80 C 11.2 80.36 1.99 72.36 0 65 M 30 80 C 17.32 82.82 -1.98 75.84 0 65 M 0 65 C -2.8 44.29 1.89 25.88 0 15 M 0 65 C -1.81 45.65 1.03 28.74 0 15" fill="none" stroke="rgb(0, 0, 0)" stroke-width="0.1" stroke-linejoin="round" stroke-linecap="round" stroke-miterlimit="10" pointer-events="all"/><path d="M 60 15 M 60 15 C 57.91 20.14 43.61 30.33 30 30 M 60 15 C 56.26 26.22 45.95 26.46 30 30 M 30 30 C 13.86 28.12 1.48 23.66 0 15 M 30 30 C 14.28 29.72 -1.81 23.68 0 15" fill="none" stroke="rgb(0, 0, 0)" stroke-width="0.1" stroke-linejoin="round" stroke-linecap="round" stroke-miterlimit="10" pointer-events="all"/></g></svg>